  0
SECTION
  2
HEADER
  9
$ACADVER
  1
AC1015
  9
$ACADMAINTVER
 70
     6
  9
$DWGCODEPAGE
  3
ANSI_950
  9
$INSBASE
 10
0.0
 20
0.0
 30
0.0
  9
$EXTMIN
 10
-93.1981
 20
-73.2866
 30
0.0
  9
$EXTMAX
 10
255.0019
 20
113.9134
 30
0.0
  9
$LIMMIN
 10
0.0
 20
0.0
  9
$LIMMAX
 10
12.0
 20
9.0
  9
$ORTHOMODE
 70
     0
  9
$REGENMODE
 70
     1
  9
$FILLMODE
 70
     1
  9
$QTEXTMODE
 70
     0
  9
$MIRRTEXT
 70
     1
  9
$LTSCALE
 40
1.0
  9
$ATTMODE
 70
     1
  9
$TEXTSIZE
 40
0.2
  9
$TRACEWID
 40
0.05
  9
$TEXTSTYLE
  7
Standard
  9
$CLAYER
  8
0
  9
$CELTYPE
  6
ByLayer
  9
$CECOLOR
 62
   256
  9
$CELTSCALE
 40
1.0
  9
$DISPSILH
 70
     0
  9
$DIMSCALE
 40
1.0
  9
$DIMASZ
 40
0.18
  9
$DIMEXO
 40
0.0625
  9
$DIMDLI
 40
0.38
  9
$DIMRND
 40
0.0
  9
$DIMDLE
 40
0.0
  9
$DIMEXE
 40
0.18
  9
$DIMTP
 40
0.0
  9
$DIMTM
 40
0.0
  9
$DIMTXT
 40
0.18
  9
$DIMCEN
 40
0.09
  9
$DIMTSZ
 40
0.0
  9
$DIMTOL
 70
     0
  9
$DIMLIM
 70
     0
  9
$DIMTIH
 70
     1
  9
$DIMTOH
 70
     1
  9
$DIMSE1
 70
     0
  9
$DIMSE2
 70
     0
  9
$DIMTAD
 70
     0
  9
$DIMZIN
 70
     0
  9
$DIMBLK
  1

  9
$DIMASO
 70
     1
  9
$DIMSHO
 70
     1
  9
$DIMPOST
  1

  9
$DIMAPOST
  1

  9
$DIMALT
 70
     0
  9
$DIMALTD
 70
     2
  9
$DIMALTF
 40
25.4
  9
$DIMLFAC
 40
1.0
  9
$DIMTOFL
 70
     0
  9
$DIMTVP
 40
0.0
  9
$DIMTIX
 70
     0
  9
$DIMSOXD
 70
     0
  9
$DIMSAH
 70
     0
  9
$DIMBLK1
  1

  9
$DIMBLK2
  1

  9
$DIMSTYLE
  2
Standard
  9
$DIMCLRD
 70
     0
  9
$DIMCLRE
 70
     0
  9
$DIMCLRT
 70
     0
  9
$DIMTFAC
 40
1.0
  9
$DIMGAP
 40
0.09
  9
$DIMJUST
 70
     0
  9
$DIMSD1
 70
     0
  9
$DIMSD2
 70
     0
  9
$DIMTOLJ
 70
     1
  9
$DIMTZIN
 70
     0
  9
$DIMALTZ
 70
     0
  9
$DIMALTTZ
 70
     0
  9
$DIMUPT
 70
     0
  9
$DIMDEC
 70
     4
  9
$DIMTDEC
 70
     4
  9
$DIMALTU
 70
     2
  9
$DIMALTTD
 70
     2
  9
$DIMTXSTY
  7
Standard
  9
$DIMAUNIT
 70
     0
  9
$DIMADEC
 70
     0
  9
$DIMALTRND
 40
0.0
  9
$DIMAZIN
 70
     0
  9
$DIMDSEP
 70
    46
  9
$DIMATFIT
 70
     3
  9
$DIMFRAC
 70
     0
  9
$DIMLDRBLK
  1

  9
$DIMLUNIT
 70
     2
  9
$DIMLWD
 70
    -2
  9
$DIMLWE
 70
    -2
  9
$DIMTMOVE
 70
     0
  9
$LUNITS
 70
     2
  9
$LUPREC
 70
     4
  9
$SKETCHINC
 40
0.1
  9
$FILLETRAD
 40
0.5
  9
$AUNITS
 70
     0
  9
$AUPREC
 70
     0
  9
$MENU
  1
.
  9
$ELEVATION
 40
0.0
  9
$PELEVATION
 40
0.0
  9
$THICKNESS
 40
0.0
  9
$LIMCHECK
 70
     0
  9
$CHAMFERA
 40
0.5
  9
$CHAMFERB
 40
0.5
  9
$CHAMFERC
 40
1.0
  9
$CHAMFERD
 40
0.0
  9
$SKPOLY
 70
     0
  9
$TDCREATE
 40
2458433.150363345
  9
$TDUCREATE
 40
2458432.817030012
  9
$TDUPDATE
 40
2458433.150363356
  9
$TDUUPDATE
 40
2458432.817030023
  9
$TDINDWG
 40
0.0000000116
  9
$TDUSRTIMER
 40
0.0000000116
  9
$USRTIMER
 70
     1
  9
$ANGBASE
 50
0.0
  9
$ANGDIR
 70
     0
  9
$PDMODE
 70
     0
  9
$PDSIZE
 40
0.0
  9
$PLINEWID
 40
0.0
  9
$SPLFRAME
 70
     0
  9
$SPLINETYPE
 70
     6
  9
$SPLINESEGS
 70
     8
  9
$HANDSEED
  5
93
  9
$SURFTAB1
 70
     6
  9
$SURFTAB2
 70
     6
  9
$SURFTYPE
 70
     6
  9
$SURFU
 70
     6
  9
$SURFV
 70
     6
  9
$UCSBASE
  2

  9
$UCSNAME
  2

  9
$UCSORG
 10
0.0
 20
0.0
 30
0.0
  9
$UCSXDIR
 10
1.0
 20
0.0
 30
0.0
  9
$UCSYDIR
 10
0.0
 20
1.0
 30
0.0
  9
$UCSORTHOREF
  2

  9
$UCSORTHOVIEW
 70
     0
  9
$UCSORGTOP
 10
0.0
 20
0.0
 30
0.0
  9
$UCSORGBOTTOM
 10
0.0
 20
0.0
 30
0.0
  9
$UCSORGLEFT
 10
0.0
 20
0.0
 30
0.0
  9
$UCSORGRIGHT
 10
0.0
 20
0.0
 30
0.0
  9
$UCSORGFRONT
 10
0.0
 20
0.0
 30
0.0
  9
$UCSORGBACK
 10
0.0
 20
0.0
 30
0.0
  9
$PUCSBASE
  2

  9
$PUCSNAME
  2

  9
$PUCSORG
 10
0.0
 20
0.0
 30
0.0
  9
$PUCSXDIR
 10
1.0
 20
0.0
 30
0.0
  9
$PUCSYDIR
 10
0.0
 20
1.0
 30
0.0
  9
$PUCSORTHOREF
  2

  9
$PUCSORTHOVIEW
 70
     0
  9
$PUCSORGTOP
 10
0.0
 20
0.0
 30
0.0
  9
$PUCSORGBOTTOM
 10
0.0
 20
0.0
 30
0.0
  9
$PUCSORGLEFT
 10
0.0
 20
0.0
 30
0.0
  9
$PUCSORGRIGHT
 10
0.0
 20
0.0
 30
0.0
  9
$PUCSORGFRONT
 10
0.0
 20
0.0
 30
0.0
  9
$PUCSORGBACK
 10
0.0
 20
0.0
 30
0.0
  9
$USERI1
 70
     0
  9
$USERI2
 70
     0
  9
$USERI3
 70
     0
  9
$USERI4
 70
     0
  9
$USERI5
 70
     0
  9
$USERR1
 40
0.0
  9
$USERR2
 40
0.0
  9
$USERR3
 40
0.0
  9
$USERR4
 40
0.0
  9
$USERR5
 40
0.0
  9
$WORLDVIEW
 70
     1
  9
$SHADEDGE
 70
     3
  9
$SHADEDIF
 70
    70
  9
$TILEMODE
 70
     1
  9
$MAXACTVP
 70
    64
  9
$PINSBASE
 10
0.0
 20
0.0
 30
0.0
  9
$PLIMCHECK
 70
     0
  9
$PEXTMIN
 10
1.000000000000000E+20
 20
1.000000000000000E+20
 30
1.000000000000000E+20
  9
$PEXTMAX
 10
-1.000000000000000E+20
 20
-1.000000000000000E+20
 30
-1.000000000000000E+20
  9
$PLIMMIN
 10
0.0
 20
0.0
  9
$PLIMMAX
 10
12.0
 20
9.0
  9
$UNITMODE
 70
     0
  9
$VISRETAIN
 70
     1
  9
$PLINEGEN
 70
     0
  9
$PSLTSCALE
 70
     1
  9
$TREEDEPTH
 70
  3020
  9
$CMLSTYLE
  2
Standard
  9
$CMLJUST
 70
     0
  9
$CMLSCALE
 40
1.0
  9
$PROXYGRAPHICS
 70
     1
  9
$MEASUREMENT
 70
     0
  9
$CELWEIGHT
370
    -1
  9
$ENDCAPS
280
     0
  9
$JOINSTYLE
280
     0
  9
$LWDISPLAY
290
     0
  9
$INSUNITS
 70
     4
  9
$HYPERLINKBASE
  1

  9
$STYLESHEET
  1

  9
$XEDIT
290
     1
  9
$CEPSNTYPE
380
     0
  9
$PSTYLEMODE
290
     1
  9
$FINGERPRINTGUID
  2
{4F42AC53-A17D-44C3-B71E-B464C1EF773F}
  9
$VERSIONGUID
  2
{FAEB1C32-E019-11D5-929B-00C0DF256EC4}
  9
$EXTNAMES
290
     1
  9
$PSVPSCALE
 40
0.0
  9
$OLESTARTUP
290
     0
  0
ENDSEC
  0
SECTION
  2
CLASSES
  0
CLASS
  1
ACDBDICTIONARYWDFLT
  2
AcDbDictionaryWithDefault
  3
ObjectDBX Classes
 90
        0
280
     0
281
     0
  0
CLASS
  1
VISUALSTYLE
  2
AcDbVisualStyle
  3
ObjectDBX Classes
 90
     4095
280
     0
281
     0
  0
CLASS
  1
MATERIAL
  2
AcDbMaterial
  3
ObjectDBX Classes
 90
     1153
280
     0
281
     0
  0
CLASS
  1
DICTIONARYVAR
  2
AcDbDictionaryVar
  3
ObjectDBX Classes
 90
        0
280
     0
281
     0
  0
CLASS
  1
ACDBPLACEHOLDER
  2
AcDbPlaceHolder
  3
ObjectDBX Classes
 90
        0
280
     0
281
     0
  0
CLASS
  1
LAYOUT
  2
AcDbLayout
  3
ObjectDBX Classes
 90
        0
280
     0
281
     0
  0
ENDSEC
  0
SECTION
  2
TABLES
  0
TABLE
  2
VPORT
  5
8
330
0
100
AcDbSymbolTable
 70
     1
  0
VPORT
  5
29
330
8
100
AcDbSymbolTableRecord
100
AcDbViewportTableRecord
  2
*Active
 70
     0
 10
0.0
 20
0.0
 11
1.0
 21
1.0
 12
10.42990654205607
 22
4.5
 13
0.0
 23
0.0
 14
0.5
 24
0.5
 15
0.5
 25
0.5
 16
0.0
 26
0.0
 36
1.0
 17
0.0
 27
0.0
 37
0.0
 40
9.0
 41
1.972972972850329
 42
50.0
 43
0.0
 44
0.0
 50
0.0
 51
0.0
 71
     0
 72
   100
 73
     1
 74
     3
 75
     0
 76
     0
 77
     0
 78
     0
281
     0
 65
     1
110
0.0
120
0.0
130
0.0
111
1.0
121
0.0
131
0.0
112
0.0
122
1.0
132
0.0
 79
     0
146
0.0
  0
ENDTAB
  0
TABLE
  2
LTYPE
  5
5
330
0
100
AcDbSymbolTable
 70
     1
  0
LTYPE
  5
14
330
5
100
AcDbSymbolTableRecord
100
AcDbLinetypeTableRecord
  2
ByBlock
 70
     0
  3

 72
    65
 73
     0
 40
0.0
  0
LTYPE
  5
15
330
5
100
AcDbSymbolTableRecord
100
AcDbLinetypeTableRecord
  2
ByLayer
 70
     0
  3

 72
    65
 73
     0
 40
0.0
  0
LTYPE
  5
16
330
5
100
AcDbSymbolTableRecord
100
AcDbLinetypeTableRecord
  2
Continuous
 70
     0
  3
Solid line
 72
    65
 73
     0
 40
0.0
  0
ENDTAB
  0
TABLE
  2
LAYER
  5
2
330
0
100
AcDbSymbolTable
 70
     2
  0
LAYER
  5
10
330
2
100
AcDbSymbolTableRecord
100
AcDbLayerTableRecord
  2
0
 70
     0
 62
     7
  6
Continuous
370
    -3
390
F
  0
LAYER
  5
40
330
2
100
AcDbSymbolTableRecord
100
AcDbLayerTableRecord
  2
Layer 1
 70
     0
 62
     7
  6
Continuous
370
    -3
390
F
  0
ENDTAB
  0
TABLE
  2
STYLE
  5
3
330
0
100
AcDbSymbolTable
 70
     1
  0
STYLE
  5
11
330
3
100
AcDbSymbolTableRecord
100
AcDbTextStyleTableRecord
  2
Standard
 70
     0
 40
0.0
 41
1.0
 50
0.0
 71
     0
 42
0.2
  3
txt
  4

  0
ENDTAB
  0
TABLE
  2
VIEW
  5
6
330
0
100
AcDbSymbolTable
 70
     0
  0
ENDTAB
  0
TABLE
  2
UCS
  5
7
330
0
100
AcDbSymbolTable
 70
     0
  0
ENDTAB
  0
TABLE
  2
APPID
  5
9
330
0
100
AcDbSymbolTable
 70
     2
  0
APPID
  5
12
330
9
100
AcDbSymbolTableRecord
100
AcDbRegAppTableRecord
  2
ACAD
 70
     0
  0
APPID
  5
3F
330
9
100
AcDbSymbolTableRecord
100
AcDbRegAppTableRecord
  2
ODA
 70
     0
  0
ENDTAB
  0
TABLE
  2
DIMSTYLE
  5
A
330
0
100
AcDbSymbolTable
 70
     1
100
AcDbDimStyleTable
  0
DIMSTYLE
105
27
330
A
100
AcDbSymbolTableRecord
100
AcDbDimStyleTableRecord
  2
Standard
 70
     0
340
11
  0
ENDTAB
  0
TABLE
  2
BLOCK_RECORD
  5
1
330
0
100
AcDbSymbolTable
 70
     1
  0
BLOCK_RECORD
  5
1F
330
1
100
AcDbSymbolTableRecord
100
AcDbBlockTableRecord
  2
*Model_Space
340
22
  0
BLOCK_RECORD
  5
1B
330
1
100
AcDbSymbolTableRecord
100
AcDbBlockTableRecord
  2
*Paper_Space
340
1E
  0
BLOCK_RECORD
  5
23
330
1
100
AcDbSymbolTableRecord
100
AcDbBlockTableRecord
  2
*Paper_Space0
340
26
  0
ENDTAB
  0
ENDSEC
  0
SECTION
  2
BLOCKS
  0
BLOCK
  5
20
330
1F
100
AcDbEntity
  8
0
100
AcDbBlockBegin
  2
*Model_Space
 70
     0
 10
0.0
 20
0.0
 30
0.0
  3
*Model_Space
  1

  0
ENDBLK
  5
21
330
1F
100
AcDbEntity
  8
0
100
AcDbBlockEnd
  0
BLOCK
  5
1C
330
1B
100
AcDbEntity
 67
     1
  8
0
100
AcDbBlockBegin
  2
*Paper_Space
 70
     0
 10
0.0
 20
0.0
 30
0.0
  3
*Paper_Space
  1

  0
ENDBLK
  5
1D
330
1B
100
AcDbEntity
 67
     1
  8
0
100
AcDbBlockEnd
  0
BLOCK
  5
24
330
23
100
AcDbEntity
  8
0
100
AcDbBlockBegin
  2
*Paper_Space0
 70
     0
 10
0.0
 20
0.0
 30
0.0
  3
*Paper_Space0
  1

  0
ENDBLK
  5
25
330
23
100
AcDbEntity
  8
0
100
AcDbBlockEnd
  0
ENDSEC
  0
SECTION
  2
ENTITIES
  0
SPLINE
  5
41
330
1F
100
AcDbEntity
  8
Layer 1
370
    20
100
AcDbSpline
210
0.0
220
0.0
230
1.0
 70
    11
 71
     3
 72
    36
 73
    32
 74
     0
 42
0.0000000001
 43
0.0000000001
 40
0.0
 40
0.0
 40
0.0
 40
0.0
 40
0.1111111111111111
 40
0.1111111111111111
 40
0.1111111111111111
 40
0.1111111111111111
 40
0.2222222222222222
 40
0.2222222222222222
 40
0.2222222222222222
 40
0.2222222222222222
 40
0.3333333333333333
 40
0.3333333333333333
 40
0.3333333333333333
 40
0.3333333333333333
 40
0.4444444444444444
 40
0.4444444444444444
 40
0.4444444444444444
 40
0.4444444444444444
 40
0.5555555555555556
 40
0.5555555555555556
 40
0.5555555555555556
 40
0.5555555555555556
 40
0.6666666666666666
 40
0.6666666666666666
 40
0.6666666666666666
 40
0.6666666666666666
 40
0.7777777777777778
 40
0.7777777777777778
 40
0.7777777777777778
 40
0.7777777777777778
 40
1.0
 40
1.0
 40
1.0
 40
1.0
 10
15.9019
 20
113.8134
 30
0.0
 10
15.9019
 20
113.8134
 30
0.0
 10
244.9018
 20
113.8134
 30
0.0
 10
244.9018
 20
113.8134
 30
0.0
 10
244.9018
 20
113.8134
 30
0.0
 10
250.4019
 20
113.8134
 30
0.0
 10
254.9019
 20
109.3131
 30
0.0
 10
254.9019
 20
103.8136
 30
0.0
 10
254.9019
 20
103.8136
 30
0.0
 10
254.9019
 20
103.8136
 30
0.0
 10
254.9019
 20
-63.1868
 30
0.0
 10
254.9019
 20
-63.1868
 30
0.0
 10
254.9019
 20
-63.1868
 30
0.0
 10
254.9019
 20
-68.6863
 30
0.0
 10
250.4019
 20
-73.1866
 30
0.0
 10
244.9018
 20
-73.1866
 30
0.0
 10
244.9018
 20
-73.1866
 30
0.0
 10
244.9018
 20
-73.1866
 30
0.0
 10
15.9019
 20
-73.1866
 30
0.0
 10
15.9019
 20
-73.1866
 30
0.0
 10
15.9019
 20
-73.1866
 30
0.0
 10
10.4018
 20
-73.1866
 30
0.0
 10
5.9019
 20
-68.6863
 30
0.0
 10
5.9019
 20
-63.1868
 30
0.0
 10
5.9019
 20
-63.1868
 30
0.0
 10
5.9019
 20
-63.1868
 30
0.0
 10
5.9019
 20
103.8136
 30
0.0
 10
5.9019
 20
103.8136
 30
0.0
 10
5.9019
 20
103.8136
 30
0.0
 10
5.9019
 20
109.3131
 30
0.0
 10
10.4018
 20
113.8134
 30
0.0
 10
15.9019
 20
113.8134
 30
0.0
  0
SPLINE
  5
42
330
1F
100
AcDbEntity
  8
Layer 1
370
    20
100
AcDbSpline
210
0.0
220
0.0
230
1.0
 70
    11
 71
     3
 72
    36
 73
    32
 74
     0
 42
0.0000000001
 43
0.0000000001
 40
0.0
 40
0.0
 40
0.0
 40
0.0
 40
0.1111111111111111
 40
0.1111111111111111
 40
0.1111111111111111
 40
0.1111111111111111
 40
0.2222222222222222
 40
0.2222222222222222
 40
0.2222222222222222
 40
0.2222222222222222
 40
0.3333333333333333
 40
0.3333333333333333
 40
0.3333333333333333
 40
0.3333333333333333
 40
0.4444444444444444
 40
0.4444444444444444
 40
0.4444444444444444
 40
0.4444444444444444
 40
0.5555555555555556
 40
0.5555555555555556
 40
0.5555555555555556
 40
0.5555555555555556
 40
0.6666666666666666
 40
0.6666666666666666
 40
0.6666666666666666
 40
0.6666666666666666
 40
0.7777777777777778
 40
0.7777777777777778
 40
0.7777777777777778
 40
0.7777777777777778
 40
1.0
 40
1.0
 40
1.0
 40
1.0
 10
125.9018
 20
22.8134
 30
0.0
 10
125.9018
 20
22.8134
 30
0.0
 10
125.9018
 20
22.8134
 30
0.0
 10
125.9018
 20
22.8134
 30
0.0
 10
125.9018
 20
22.8134
 30
0.0
 10
127.5518
 20
22.8134
 30
0.0
 10
128.9018
 20
21.4634
 30
0.0
 10
128.9018
 20
19.8134
 30
0.0
 10
128.9018
 20
19.8134
 30
0.0
 10
128.9018
 20
19.8134
 30
0.0
 10
128.9018
 20
-14.1866
 30
0.0
 10
128.9018
 20
-14.1866
 30
0.0
 10
128.9018
 20
-14.1866
 30
0.0
 10
128.9018
 20
-15.8366
 30
0.0
 10
127.5518
 20
-17.1866
 30
0.0
 10
125.9018
 20
-17.1866
 30
0.0
 10
125.9018
 20
-17.1866
 30
0.0
 10
125.9018
 20
-17.1866
 30
0.0
 10
125.9018
 20
-17.1866
 30
0.0
 10
125.9018
 20
-17.1866
 30
0.0
 10
125.9018
 20
-17.1866
 30
0.0
 10
124.2518
 20
-17.1866
 30
0.0
 10
122.9018
 20
-15.8366
 30
0.0
 10
122.9018
 20
-14.1866
 30
0.0
 10
122.9018
 20
-14.1866
 30
0.0
 10
122.9018
 20
-14.1866
 30
0.0
 10
122.9018
 20
19.8134
 30
0.0
 10
122.9018
 20
19.8134
 30
0.0
 10
122.9018
 20
19.8134
 30
0.0
 10
122.9018
 20
21.4634
 30
0.0
 10
124.2518
 20
22.8134
 30
0.0
 10
125.9018
 20
22.8134
 30
0.0
  0
SPLINE
  5
43
330
1F
100
AcDbEntity
  8
Layer 1
370
    20
100
AcDbSpline
210
0.0
220
0.0
230
1.0
 70
    11
 71
     3
 72
    36
 73
    32
 74
     0
 42
0.0000000001
 43
0.0000000001
 40
0.0
 40
0.0
 40
0.0
 40
0.0
 40
0.1111111111111111
 40
0.1111111111111111
 40
0.1111111111111111
 40
0.1111111111111111
 40
0.2222222222222222
 40
0.2222222222222222
 40
0.2222222222222222
 40
0.2222222222222222
 40
0.3333333333333333
 40
0.3333333333333333
 40
0.3333333333333333
 40
0.3333333333333333
 40
0.4444444444444444
 40
0.4444444444444444
 40
0.4444444444444444
 40
0.4444444444444444
 40
0.5555555555555556
 40
0.5555555555555556
 40
0.5555555555555556
 40
0.5555555555555556
 40
0.6666666666666666
 40
0.6666666666666666
 40
0.6666666666666666
 40
0.6666666666666666
 40
0.7777777777777778
 40
0.7777777777777778
 40
0.7777777777777778
 40
0.7777777777777778
 40
1.0
 40
1.0
 40
1.0
 40
1.0
 10
158.9018
 20
57.8134
 30
0.0
 10
158.9018
 20
57.8134
 30
0.0
 10
158.9018
 20
57.8134
 30
0.0
 10
158.9018
 20
57.8134
 30
0.0
 10
158.9018
 20
57.8134
 30
0.0
 10
160.5518
 20
57.8134
 30
0.0
 10
161.9018
 20
56.4634
 30
0.0
 10
161.9018
 20
54.8134
 30
0.0
 10
161.9018
 20
54.8134
 30
0.0
 10
161.9018
 20
54.8134
 30
0.0
 10
161.9018
 20
20.8134
 30
0.0
 10
161.9018
 20
20.8134
 30
0.0
 10
161.9018
 20
20.8134
 30
0.0
 10
161.9018
 20
19.1634
 30
0.0
 10
160.5518
 20
17.8134
 30
0.0
 10
158.9018
 20
17.8134
 30
0.0
 10
158.9018
 20
17.8134
 30
0.0
 10
158.9018
 20
17.8134
 30
0.0
 10
158.9018
 20
17.8134
 30
0.0
 10
158.9018
 20
17.8134
 30
0.0
 10
158.9018
 20
17.8134
 30
0.0
 10
157.2518
 20
17.8134
 30
0.0
 10
155.9018
 20
19.1634
 30
0.0
 10
155.9018
 20
20.8134
 30
0.0
 10
155.9018
 20
20.8134
 30
0.0
 10
155.9018
 20
20.8134
 30
0.0
 10
155.9018
 20
54.8134
 30
0.0
 10
155.9018
 20
54.8134
 30
0.0
 10
155.9018
 20
54.8134
 30
0.0
 10
155.9018
 20
56.4634
 30
0.0
 10
157.2518
 20
57.8134
 30
0.0
 10
158.9018
 20
57.8134
 30
0.0
  0
SPLINE
  5
44
330
1F
100
AcDbEntity
  8
Layer 1
370
    20
100
AcDbSpline
210
0.0
220
0.0
230
1.0
 70
    11
 71
     3
 72
    36
 73
    32
 74
     0
 42
0.0000000001
 43
0.0000000001
 40
0.0
 40
0.0
 40
0.0
 40
0.0
 40
0.1111111111111111
 40
0.1111111111111111
 40
0.1111111111111111
 40
0.1111111111111111
 40
0.2222222222222222
 40
0.2222222222222222
 40
0.2222222222222222
 40
0.2222222222222222
 40
0.3333333333333333
 40
0.3333333333333333
 40
0.3333333333333333
 40
0.3333333333333333
 40
0.4444444444444444
 40
0.4444444444444444
 40
0.4444444444444444
 40
0.4444444444444444
 40
0.5555555555555556
 40
0.5555555555555556
 40
0.5555555555555556
 40
0.5555555555555556
 40
0.6666666666666666
 40
0.6666666666666666
 40
0.6666666666666666
 40
0.6666666666666666
 40
0.7777777777777778
 40
0.7777777777777778
 40
0.7777777777777778
 40
0.7777777777777778
 40
1.0
 40
1.0
 40
1.0
 40
1.0
 10
191.9018
 20
22.8134
 30
0.0
 10
191.9018
 20
22.8134
 30
0.0
 10
191.9018
 20
22.8134
 30
0.0
 10
191.9018
 20
22.8134
 30
0.0
 10
191.9018
 20
22.8134
 30
0.0
 10
193.5518
 20
22.8134
 30
0.0
 10
194.9018
 20
21.4634
 30
0.0
 10
194.9018
 20
19.8134
 30
0.0
 10
194.9018
 20
19.8134
 30
0.0
 10
194.9018
 20
19.8134
 30
0.0
 10
194.9018
 20
-14.1866
 30
0.0
 10
194.9018
 20
-14.1866
 30
0.0
 10
194.9018
 20
-14.1866
 30
0.0
 10
194.9018
 20
-15.8366
 30
0.0
 10
193.5518
 20
-17.1866
 30
0.0
 10
191.9018
 20
-17.1866
 30
0.0
 10
191.9018
 20
-17.1866
 30
0.0
 10
191.9018
 20
-17.1866
 30
0.0
 10
191.9018
 20
-17.1866
 30
0.0
 10
191.9018
 20
-17.1866
 30
0.0
 10
191.9018
 20
-17.1866
 30
0.0
 10
190.2518
 20
-17.1866
 30
0.0
 10
188.9018
 20
-15.8366
 30
0.0
 10
188.9018
 20
-14.1866
 30
0.0
 10
188.9018
 20
-14.1866
 30
0.0
 10
188.9018
 20
-14.1866
 30
0.0
 10
188.9018
 20
19.8134
 30
0.0
 10
188.9018
 20
19.8134
 30
0.0
 10
188.9018
 20
19.8134
 30
0.0
 10
188.9018
 20
21.4634
 30
0.0
 10
190.2518
 20
22.8134
 30
0.0
 10
191.9018
 20
22.8134
 30
0.0
  0
SPLINE
  5
45
330
1F
100
AcDbEntity
  8
Layer 1
370
    20
100
AcDbSpline
210
0.0
220
0.0
230
1.0
 70
    11
 71
     3
 72
    36
 73
    32
 74
     0
 42
0.0000000001
 43
0.0000000001
 40
0.0
 40
0.0
 40
0.0
 40
0.0
 40
0.1111111111111111
 40
0.1111111111111111
 40
0.1111111111111111
 40
0.1111111111111111
 40
0.2222222222222222
 40
0.2222222222222222
 40
0.2222222222222222
 40
0.2222222222222222
 40
0.3333333333333333
 40
0.3333333333333333
 40
0.3333333333333333
 40
0.3333333333333333
 40
0.4444444444444444
 40
0.4444444444444444
 40
0.4444444444444444
 40
0.4444444444444444
 40
0.5555555555555556
 40
0.5555555555555556
 40
0.5555555555555556
 40
0.5555555555555556
 40
0.6666666666666666
 40
0.6666666666666666
 40
0.6666666666666666
 40
0.6666666666666666
 40
0.7777777777777778
 40
0.7777777777777778
 40
0.7777777777777778
 40
0.7777777777777778
 40
1.0
 40
1.0
 40
1.0
 40
1.0
 10
224.9018
 20
57.8134
 30
0.0
 10
224.9018
 20
57.8134
 30
0.0
 10
224.9018
 20
57.8134
 30
0.0
 10
224.9018
 20
57.8134
 30
0.0
 10
224.9018
 20
57.8134
 30
0.0
 10
226.5518
 20
57.8134
 30
0.0
 10
227.9018
 20
56.4634
 30
0.0
 10
227.9018
 20
54.8134
 30
0.0
 10
227.9018
 20
54.8134
 30
0.0
 10
227.9018
 20
54.8134
 30
0.0
 10
227.9018
 20
20.8134
 30
0.0
 10
227.9018
 20
20.8134
 30
0.0
 10
227.9018
 20
20.8134
 30
0.0
 10
227.9018
 20
19.1634
 30
0.0
 10
226.5518
 20
17.8134
 30
0.0
 10
224.9018
 20
17.8134
 30
0.0
 10
224.9018
 20
17.8134
 30
0.0
 10
224.9018
 20
17.8134
 30
0.0
 10
224.9018
 20
17.8134
 30
0.0
 10
224.9018
 20
17.8134
 30
0.0
 10
224.9018
 20
17.8134
 30
0.0
 10
223.2518
 20
17.8134
 30
0.0
 10
221.9018
 20
19.1634
 30
0.0
 10
221.9018
 20
20.8134
 30
0.0
 10
221.9018
 20
20.8134
 30
0.0
 10
221.9018
 20
20.8134
 30
0.0
 10
221.9018
 20
54.8134
 30
0.0
 10
221.9018
 20
54.8134
 30
0.0
 10
221.9018
 20
54.8134
 30
0.0
 10
221.9018
 20
56.4634
 30
0.0
 10
223.2518
 20
57.8134
 30
0.0
 10
224.9018
 20
57.8134
 30
0.0
  0
ELLIPSE
  5
46
330
1F
100
AcDbEntity
  8
Layer 1
370
    20
100
AcDbEllipse
 10
63.4018
 20
61.3135
 30
0.0
 11
0.0
 21
4.0
 31
0.0
210
0.0
220
0.0
230
1.0
 40
1.0
 41
0.0
 42
6.283185307179586
  0
LWPOLYLINE
  5
47
330
1F
100
AcDbEntity
  8
Layer 1
370
    20
100
AcDbPolyline
 90
        5
 70
     1
 43
0.0
 10
148.4018
 20
98.8134
 10
155.4018
 20
98.8134
 10
155.4018
 20
103.8134
 10
148.4018
 20
103.8134
 10
148.4018
 20
98.8134
  0
LWPOLYLINE
  5
48
330
1F
100
AcDbEntity
  8
Layer 1
370
    20
100
AcDbPolyline
 90
        5
 70
     1
 43
0.0
 10
162.4018
 20
98.8134
 10
169.4018
 20
98.8134
 10
169.4018
 20
103.8134
 10
162.4018
 20
103.8134
 10
162.4018
 20
98.8134
  0
LWPOLYLINE
  5
49
330
1F
100
AcDbEntity
  8
Layer 1
370
    20
100
AcDbPolyline
 90
        5
 70
     1
 43
0.0
 10
214.4018
 20
98.8134
 10
221.4018
 20
98.8134
 10
221.4018
 20
103.8134
 10
214.4018
 20
103.8134
 10
214.4018
 20
98.8134
  0
LWPOLYLINE
  5
4A
330
1F
100
AcDbEntity
  8
Layer 1
370
    20
100
AcDbPolyline
 90
        5
 70
     1
 43
0.0
 10
228.4018
 20
98.8134
 10
235.4018
 20
98.8134
 10
235.4018
 20
103.8134
 10
228.4018
 20
103.8134
 10
228.4018
 20
98.8134
  0
LWPOLYLINE
  5
4B
330
1F
100
AcDbEntity
  8
Layer 1
370
    20
100
AcDbPolyline
 90
        5
 70
     1
 43
0.0
 10
115.4018
 20
41.3134
 10
122.4018
 20
41.3134
 10
122.4018
 20
46.3134
 10
115.4018
 20
46.3134
 10
115.4018
 20
41.3134
  0
LWPOLYLINE
  5
4C
330
1F
100
AcDbEntity
  8
Layer 1
370
    20
100
AcDbPolyline
 90
        5
 70
     1
 43
0.0
 10
129.4018
 20
41.3134
 10
136.4018
 20
41.3134
 10
136.4018
 20
46.3134
 10
129.4018
 20
46.3134
 10
129.4018
 20
41.3134
  0
LWPOLYLINE
  5
4D
330
1F
100
AcDbEntity
  8
Layer 1
370
    20
100
AcDbPolyline
 90
        5
 70
     1
 43
0.0
 10
181.4018
 20
41.3134
 10
188.4018
 20
41.3134
 10
188.4018
 20
46.3134
 10
181.4018
 20
46.3134
 10
181.4018
 20
41.3134
  0
LWPOLYLINE
  5
4E
330
1F
100
AcDbEntity
  8
Layer 1
370
    20
100
AcDbPolyline
 90
        5
 70
     1
 43
0.0
 10
195.4018
 20
41.3134
 10
202.4018
 20
41.3134
 10
202.4018
 20
46.3134
 10
195.4018
 20
46.3134
 10
195.4018
 20
41.3134
  0
LWPOLYLINE
  5
4F
330
1F
100
AcDbEntity
  8
Layer 1
370
    20
100
AcDbPolyline
 90
        5
 70
     1
 43
0.0
 10
148.4018
 20
-5.6866
 10
155.4018
 20
-5.6866
 10
155.4018
 20
-0.6866
 10
148.4018
 20
-0.6866
 10
148.4018
 20
-5.6866
  0
LWPOLYLINE
  5
50
330
1F
100
AcDbEntity
  8
Layer 1
370
    20
100
AcDbPolyline
 90
        5
 70
     1
 43
0.0
 10
162.4018
 20
-5.6866
 10
169.4018
 20
-5.6866
 10
169.4018
 20
-0.6866
 10
162.4018
 20
-0.6866
 10
162.4018
 20
-5.6866
  0
LWPOLYLINE
  5
51
330
1F
100
AcDbEntity
  8
Layer 1
370
    20
100
AcDbPolyline
 90
        5
 70
     1
 43
0.0
 10
214.4018
 20
-5.6866
 10
221.4018
 20
-5.6866
 10
221.4018
 20
-0.6866
 10
214.4018
 20
-0.6866
 10
214.4018
 20
-5.6866
  0
LWPOLYLINE
  5
52
330
1F
100
AcDbEntity
  8
Layer 1
370
    20
100
AcDbPolyline
 90
        5
 70
     1
 43
0.0
 10
228.4018
 20
-5.6866
 10
235.4018
 20
-5.6866
 10
235.4018
 20
-0.6866
 10
228.4018
 20
-0.6866
 10
228.4018
 20
-5.6866
  0
LWPOLYLINE
  5
53
330
1F
100
AcDbEntity
  8
Layer 1
370
    20
100
AcDbPolyline
 90
        5
 70
     1
 43
0.0
 10
115.4018
 20
-63.1866
 10
122.4018
 20
-63.1866
 10
122.4018
 20
-58.1866
 10
115.4018
 20
-58.1866
 10
115.4018
 20
-63.1866
  0
LWPOLYLINE
  5
54
330
1F
100
AcDbEntity
  8
Layer 1
370
    20
100
AcDbPolyline
 90
        5
 70
     1
 43
0.0
 10
129.4018
 20
-63.1866
 10
136.4018
 20
-63.1866
 10
136.4018
 20
-58.1866
 10
129.4018
 20
-58.1866
 10
129.4018
 20
-63.1866
  0
LWPOLYLINE
  5
55
330
1F
100
AcDbEntity
  8
Layer 1
370
    20
100
AcDbPolyline
 90
        5
 70
     1
 43
0.0
 10
181.4018
 20
-63.1866
 10
188.4018
 20
-63.1866
 10
188.4018
 20
-58.1866
 10
181.4018
 20
-58.1866
 10
181.4018
 20
-63.1866
  0
LWPOLYLINE
  5
56
330
1F
100
AcDbEntity
  8
Layer 1
370
    20
100
AcDbPolyline
 90
        5
 70
     1
 43
0.0
 10
195.4018
 20
-63.1866
 10
202.4018
 20
-63.1866
 10
202.4018
 20
-58.1866
 10
195.4018
 20
-58.1866
 10
195.4018
 20
-63.1866
  0
SPLINE
  5
57
330
1F
100
AcDbEntity
  8
Layer 1
370
    20
100
AcDbSpline
210
0.0
220
0.0
230
1.0
 70
    11
 71
     3
 72
   132
 73
   128
 74
     0
 42
0.0000000001
 43
0.0000000001
 40
0.0
 40
0.0
 40
0.0
 40
0.0
 40
0.0303030303030303
 40
0.0303030303030303
 40
0.0303030303030303
 40
0.0303030303030303
 40
0.0606060606060606
 40
0.0606060606060606
 40
0.0606060606060606
 40
0.0606060606060606
 40
0.0909090909090909
 40
0.0909090909090909
 40
0.0909090909090909
 40
0.0909090909090909
 40
0.1212121212121212
 40
0.1212121212121212
 40
0.1212121212121212
 40
0.1212121212121212
 40
0.1515151515151515
 40
0.1515151515151515
 40
0.1515151515151515
 40
0.1515151515151515
 40
0.1818181818181818
 40
0.1818181818181818
 40
0.1818181818181818
 40
0.1818181818181818
 40
0.2121212121212121
 40
0.2121212121212121
 40
0.2121212121212121
 40
0.2121212121212121
 40
0.2424242424242424
 40
0.2424242424242424
 40
0.2424242424242424
 40
0.2424242424242424
 40
0.2727272727272727
 40
0.2727272727272727
 40
0.2727272727272727
 40
0.2727272727272727
 40
0.303030303030303
 40
0.303030303030303
 40
0.303030303030303
 40
0.303030303030303
 40
0.3333333333333333
 40
0.3333333333333333
 40
0.3333333333333333
 40
0.3333333333333333
 40
0.3636363636363636
 40
0.3636363636363636
 40
0.3636363636363636
 40
0.3636363636363636
 40
0.3939393939393939
 40
0.3939393939393939
 40
0.3939393939393939
 40
0.3939393939393939
 40
0.4242424242424243
 40
0.4242424242424243
 40
0.4242424242424243
 40
0.4242424242424243
 40
0.4545454545454545
 40
0.4545454545454545
 40
0.4545454545454545
 40
0.4545454545454545
 40
0.4848484848484849
 40
0.4848484848484849
 40
0.4848484848484849
 40
0.4848484848484849
 40
0.5151515151515151
 40
0.5151515151515151
 40
0.5151515151515151
 40
0.5151515151515151
 40
0.5454545454545454
 40
0.5454545454545454
 40
0.5454545454545454
 40
0.5454545454545454
 40
0.5757575757575758
 40
0.5757575757575758
 40
0.5757575757575758
 40
0.5757575757575758
 40
0.6060606060606061
 40
0.6060606060606061
 40
0.6060606060606061
 40
0.6060606060606061
 40
0.6363636363636364
 40
0.6363636363636364
 40
0.6363636363636364
 40
0.6363636363636364
 40
0.6666666666666666
 40
0.6666666666666666
 40
0.6666666666666666
 40
0.6666666666666666
 40
0.696969696969697
 40
0.696969696969697
 40
0.696969696969697
 40
0.696969696969697
 40
0.7272727272727273
 40
0.7272727272727273
 40
0.7272727272727273
 40
0.7272727272727273
 40
0.7575757575757576
 40
0.7575757575757576
 40
0.7575757575757576
 40
0.7575757575757576
 40
0.7878787878787878
 40
0.7878787878787878
 40
0.7878787878787878
 40
0.7878787878787878
 40
0.8181818181818182
 40
0.8181818181818182
 40
0.8181818181818182
 40
0.8181818181818182
 40
0.8484848484848485
 40
0.8484848484848485
 40
0.8484848484848485
 40
0.8484848484848485
 40
0.8787878787878788
 40
0.8787878787878788
 40
0.8787878787878788
 40
0.8787878787878788
 40
0.9090909090909091
 40
0.9090909090909091
 40
0.9090909090909091
 40
0.9090909090909091
 40
0.9393939393939394
 40
0.9393939393939394
 40
0.9393939393939394
 40
0.9393939393939394
 40
1.0
 40
1.0
 40
1.0
 40
1.0
 10
-34.0981
 20
-54.1866
 30
0.0
 10
-34.0981
 20
-54.1866
 30
0.0
 10
-36.8481
 20
-54.1866
 30
0.0
 10
-36.8481
 20
-54.1866
 30
0.0
 10
-36.8481
 20
-54.1866
 30
0.0
 10
-36.8481
 20
-54.1866
 30
0.0
 10
-40.2231
 20
-54.6866
 30
0.0
 10
-40.2231
 20
-54.6866
 30
0.0
 10
-40.2231
 20
-54.6866
 30
0.0
 10
-40.2231
 20
-54.6866
 30
0.0
 10
-43.5981
 20
-54.6866
 30
0.0
 10
-43.5981
 20
-54.6866
 30
0.0
 10
-43.5981
 20
-54.6866
 30
0.0
 10
-43.5981
 20
-54.6866
 30
0.0
 10
-43.5981
 20
-53.6866
 30
0.0
 10
-43.5981
 20
-53.6866
 30
0.0
 10
-43.5981
 20
-53.6866
 30
0.0
 10
-43.5981
 20
-53.6866
 30
0.0
 10
-43.0981
 20
-53.6866
 30
0.0
 10
-43.0981
 20
-53.6866
 30
0.0
 10
-43.0981
 20
-53.6866
 30
0.0
 10
-43.0981
 20
-53.6866
 30
0.0
 10
-43.0981
 20
-52.1866
 30
0.0
 10
-43.0981
 20
-52.1866
 30
0.0
 10
-43.0981
 20
-52.1866
 30
0.0
 10
-43.0981
 20
-51.9112
 30
0.0
 10
-43.3227
 20
-51.6866
 30
0.0
 10
-43.5981
 20
-51.6866
 30
0.0
 10
-43.5981
 20
-51.6866
 30
0.0
 10
-43.5981
 20
-51.6866
 30
0.0
 10
-46.5981
 20
-51.6866
 30
0.0
 10
-46.5981
 20
-51.6866
 30
0.0
 10
-46.5981
 20
-51.6866
 30
0.0
 10
-46.8735
 20
-51.6866
 30
0.0
 10
-47.0981
 20
-51.9112
 30
0.0
 10
-47.0981
 20
-52.1866
 30
0.0
 10
-47.0981
 20
-52.1866
 30
0.0
 10
-47.0981
 20
-52.1866
 30
0.0
 10
-47.0981
 20
-53.6866
 30
0.0
 10
-47.0981
 20
-53.6866
 30
0.0
 10
-47.0981
 20
-53.6866
 30
0.0
 10
-47.0981
 20
-53.6866
 30
0.0
 10
-46.5981
 20
-53.6866
 30
0.0
 10
-46.5981
 20
-53.6866
 30
0.0
 10
-46.5981
 20
-53.6866
 30
0.0
 10
-46.5981
 20
-53.6866
 30
0.0
 10
-46.5981
 20
-54.6866
 30
0.0
 10
-46.5981
 20
-54.6866
 30
0.0
 10
-46.5981
 20
-54.6866
 30
0.0
 10
-46.5981
 20
-54.6866
 30
0.0
 10
-49.9731
 20
-54.6866
 30
0.0
 10
-49.9731
 20
-54.6866
 30
0.0
 10
-49.9731
 20
-54.6866
 30
0.0
 10
-49.9731
 20
-54.6866
 30
0.0
 10
-53.3481
 20
-54.1866
 30
0.0
 10
-53.3481
 20
-54.1866
 30
0.0
 10
-53.3481
 20
-54.1866
 30
0.0
 10
-53.3481
 20
-54.1866
 30
0.0
 10
-56.0981
 20
-54.1866
 30
0.0
 10
-56.0981
 20
-54.1866
 30
0.0
 10
-56.0981
 20
-54.1866
 30
0.0
 10
-58.3012
 20
-54.1866
 30
0.0
 10
-60.0981
 20
-55.9835
 30
0.0
 10
-60.0981
 20
-58.1866
 30
0.0
 10
-60.0981
 20
-58.1866
 30
0.0
 10
-60.0981
 20
-58.1866
 30
0.0
 10
-60.0981
 20
-64.1866
 30
0.0
 10
-60.0981
 20
-64.1866
 30
0.0
 10
-60.0981
 20
-64.1866
 30
0.0
 10
-60.0981
 20
-64.1866
 30
0.0
 10
-55.5981
 20
-64.1866
 30
0.0
 10
-55.5981
 20
-64.1866
 30
0.0
 10
-55.5981
 20
-64.1866
 30
0.0
 10
-55.5981
 20
-64.1866
 30
0.0
 10
-55.5981
 20
-72.1866
 30
0.0
 10
-55.5981
 20
-72.1866
 30
0.0
 10
-55.5981
 20
-72.1866
 30
0.0
 10
-55.5981
 20
-72.7363
 30
0.0
 10
-55.1489
 20
-73.1866
 30
0.0
 10
-54.5981
 20
-73.1866
 30
0.0
 10
-54.5981
 20
-73.1866
 30
0.0
 10
-54.5981
 20
-73.1866
 30
0.0
 10
-49.5981
 20
-73.1866
 30
0.0
 10
-49.5981
 20
-73.1866
 30
0.0
 10
-49.5981
 20
-73.1866
 30
0.0
 10
-49.0473
 20
-73.1866
 30
0.0
 10
-48.5981
 20
-72.7374
 30
0.0
 10
-48.5981
 20
-72.1866
 30
0.0
 10
-48.5981
 20
-72.1866
 30
0.0
 10
-48.5981
 20
-72.1866
 30
0.0
 10
-48.5981
 20
-64.1866
 30
0.0
 10
-48.5981
 20
-64.1866
 30
0.0
 10
-48.5981
 20
-64.1866
 30
0.0
 10
-48.5981
 20
-64.1866
 30
0.0
 10
-41.5981
 20
-64.1866
 30
0.0
 10
-41.5981
 20
-64.1866
 30
0.0
 10
-41.5981
 20
-64.1866
 30
0.0
 10
-41.5981
 20
-64.1866
 30
0.0
 10
-41.5981
 20
-72.1866
 30
0.0
 10
-41.5981
 20
-72.1866
 30
0.0
 10
-41.5981
 20
-72.1866
 30
0.0
 10
-41.5981
 20
-72.7362
 30
0.0
 10
-41.1489
 20
-73.1866
 30
0.0
 10
-40.5981
 20
-73.1866
 30
0.0
 10
-40.5981
 20
-73.1866
 30
0.0
 10
-40.5981
 20
-73.1866
 30
0.0
 10
-35.5981
 20
-73.1866
 30
0.0
 10
-35.5981
 20
-73.1866
 30
0.0
 10
-35.5981
 20
-73.1866
 30
0.0
 10
-35.0473
 20
-73.1866
 30
0.0
 10
-34.5981
 20
-72.7374
 30
0.0
 10
-34.5981
 20
-72.1866
 30
0.0
 10
-34.5981
 20
-72.1866
 30
0.0
 10
-34.5981
 20
-72.1866
 30
0.0
 10
-34.5981
 20
-64.1866
 30
0.0
 10
-34.5981
 20
-64.1866
 30
0.0
 10
-34.5981
 20
-64.1866
 30
0.0
 10
-34.5981
 20
-64.1866
 30
0.0
 10
-30.0981
 20
-64.1866
 30
0.0
 10
-30.0981
 20
-64.1866
 30
0.0
 10
-30.0981
 20
-64.1866
 30
0.0
 10
-30.0981
 20
-64.1866
 30
0.0
 10
-30.0981
 20
-58.1866
 30
0.0
 10
-30.0981
 20
-58.1866
 30
0.0
 10
-30.0981
 20
-58.1866
 30
0.0
 10
-30.0981
 20
-55.9835
 30
0.0
 10
-31.895
 20
-54.1866
 30
0.0
 10
-34.0981
 20
-54.1866
 30
0.0
  0
SPLINE
  5
58
330
1F
100
AcDbEntity
  8
Layer 1
370
    20
100
AcDbSpline
210
0.0
220
0.0
230
1.0
 70
    11
 71
     3
 72
    20
 73
    16
 74
     0
 42
0.0000000001
 43
0.0000000001
 40
0.0
 40
0.0
 40
0.0
 40
0.0
 40
0.2
 40
0.2
 40
0.2
 40
0.2
 40
0.4
 40
0.4
 40
0.4
 40
0.4
 40
0.6
 40
0.6
 40
0.6
 40
0.6
 40
1.0
 40
1.0
 40
1.0
 40
1.0
 10
-34.0981
 20
-57.1866
 30
0.0
 10
-33.5459
 20
-57.1866
 30
0.0
 10
-33.0981
 20
-57.6343
 30
0.0
 10
-33.0981
 20
-58.1866
 30
0.0
 10
-33.0981
 20
-58.1866
 30
0.0
 10
-33.0981
 20
-58.7388
 30
0.0
 10
-33.5459
 20
-59.1866
 30
0.0
 10
-34.0981
 20
-59.1866
 30
0.0
 10
-34.0981
 20
-59.1866
 30
0.0
 10
-34.6504
 20
-59.1866
 30
0.0
 10
-35.0981
 20
-58.7388
 30
0.0
 10
-35.0981
 20
-58.1866
 30
0.0
 10
-35.0981
 20
-58.1866
 30
0.0
 10
-35.0981
 20
-57.6343
 30
0.0
 10
-34.6504
 20
-57.1866
 30
0.0
 10
-34.0981
 20
-57.1866
 30
0.0
  0
SPLINE
  5
59
330
1F
100
AcDbEntity
  8
Layer 1
370
    20
100
AcDbSpline
210
0.0
220
0.0
230
1.0
 70
    11
 71
     3
 72
    20
 73
    16
 74
     0
 42
0.0000000001
 43
0.0000000001
 40
0.0
 40
0.0
 40
0.0
 40
0.0
 40
0.2
 40
0.2
 40
0.2
 40
0.2
 40
0.4
 40
0.4
 40
0.4
 40
0.4
 40
0.6
 40
0.6
 40
0.6
 40
0.6
 40
1.0
 40
1.0
 40
1.0
 40
1.0
 10
-56.0981
 20
-57.1866
 30
0.0
 10
-55.5459
 20
-57.1866
 30
0.0
 10
-55.0981
 20
-57.6343
 30
0.0
 10
-55.0981
 20
-58.1866
 30
0.0
 10
-55.0981
 20
-58.1866
 30
0.0
 10
-55.0981
 20
-58.7388
 30
0.0
 10
-55.5459
 20
-59.1866
 30
0.0
 10
-56.0981
 20
-59.1866
 30
0.0
 10
-56.0981
 20
-59.1866
 30
0.0
 10
-56.6504
 20
-59.1866
 30
0.0
 10
-57.0981
 20
-58.7388
 30
0.0
 10
-57.0981
 20
-58.1866
 30
0.0
 10
-57.0981
 20
-58.1866
 30
0.0
 10
-57.0981
 20
-57.6343
 30
0.0
 10
-56.6504
 20
-57.1866
 30
0.0
 10
-56.0981
 20
-57.1866
 30
0.0
  0
SPLINE
  5
5A
330
1F
100
AcDbEntity
  8
Layer 1
370
    20
100
AcDbSpline
210
0.0
220
0.0
230
1.0
 70
    11
 71
     3
 72
    76
 73
    72
 74
     0
 42
0.0000000001
 43
0.0000000001
 40
0.0
 40
0.0
 40
0.0
 40
0.0
 40
0.0526315789473684
 40
0.0526315789473684
 40
0.0526315789473684
 40
0.0526315789473684
 40
0.1052631578947368
 40
0.1052631578947368
 40
0.1052631578947368
 40
0.1052631578947368
 40
0.1578947368421053
 40
0.1578947368421053
 40
0.1578947368421053
 40
0.1578947368421053
 40
0.2105263157894737
 40
0.2105263157894737
 40
0.2105263157894737
 40
0.2105263157894737
 40
0.2631578947368421
 40
0.2631578947368421
 40
0.2631578947368421
 40
0.2631578947368421
 40
0.3157894736842105
 40
0.3157894736842105
 40
0.3157894736842105
 40
0.3157894736842105
 40
0.3684210526315789
 40
0.3684210526315789
 40
0.3684210526315789
 40
0.3684210526315789
 40
0.4210526315789473
 40
0.4210526315789473
 40
0.4210526315789473
 40
0.4210526315789473
 40
0.4736842105263158
 40
0.4736842105263158
 40
0.4736842105263158
 40
0.4736842105263158
 40
0.5263157894736842
 40
0.5263157894736842
 40
0.5263157894736842
 40
0.5263157894736842
 40
0.5789473684210527
 40
0.5789473684210527
 40
0.5789473684210527
 40
0.5789473684210527
 40
0.631578947368421
 40
0.631578947368421
 40
0.631578947368421
 40
0.631578947368421
 40
0.6842105263157895
 40
0.6842105263157895
 40
0.6842105263157895
 40
0.6842105263157895
 40
0.7368421052631579
 40
0.7368421052631579
 40
0.7368421052631579
 40
0.7368421052631579
 40
0.7894736842105263
 40
0.7894736842105263
 40
0.7894736842105263
 40
0.7894736842105263
 40
0.8421052631578947
 40
0.8421052631578947
 40
0.8421052631578947
 40
0.8421052631578947
 40
0.8947368421052632
 40
0.8947368421052632
 40
0.8947368421052632
 40
0.8947368421052632
 40
1.0
 40
1.0
 40
1.0
 40
1.0
 10
-1.0981
 20
-54.1866
 30
0.0
 10
-1.0981
 20
-54.1866
 30
0.0
 10
-23.0981
 20
-54.1866
 30
0.0
 10
-23.0981
 20
-54.1866
 30
0.0
 10
-23.0981
 20
-54.1866
 30
0.0
 10
-25.3011
 20
-54.1866
 30
0.0
 10
-27.0981
 20
-55.9836
 30
0.0
 10
-27.0981
 20
-58.1866
 30
0.0
 10
-27.0981
 20
-58.1866
 30
0.0
 10
-27.0981
 20
-58.1866
 30
0.0
 10
-27.0981
 20
-64.1866
 30
0.0
 10
-27.0981
 20
-64.1866
 30
0.0
 10
-27.0981
 20
-64.1866
 30
0.0
 10
-27.0981
 20
-64.1866
 30
0.0
 10
-22.5981
 20
-64.1866
 30
0.0
 10
-22.5981
 20
-64.1866
 30
0.0
 10
-22.5981
 20
-64.1866
 30
0.0
 10
-22.5981
 20
-64.1866
 30
0.0
 10
-22.5981
 20
-72.1866
 30
0.0
 10
-22.5981
 20
-72.1866
 30
0.0
 10
-22.5981
 20
-72.1866
 30
0.0
 10
-22.5981
 20
-72.7363
 30
0.0
 10
-22.1489
 20
-73.1866
 30
0.0
 10
-21.5981
 20
-73.1866
 30
0.0
 10
-21.5981
 20
-73.1866
 30
0.0
 10
-21.5981
 20
-73.1866
 30
0.0
 10
-16.5981
 20
-73.1866
 30
0.0
 10
-16.5981
 20
-73.1866
 30
0.0
 10
-16.5981
 20
-73.1866
 30
0.0
 10
-16.0473
 20
-73.1866
 30
0.0
 10
-15.5981
 20
-72.7374
 30
0.0
 10
-15.5981
 20
-72.1866
 30
0.0
 10
-15.5981
 20
-72.1866
 30
0.0
 10
-15.5981
 20
-72.1866
 30
0.0
 10
-15.5981
 20
-64.1866
 30
0.0
 10
-15.5981
 20
-64.1866
 30
0.0
 10
-15.5981
 20
-64.1866
 30
0.0
 10
-15.5981
 20
-64.1866
 30
0.0
 10
-8.5981
 20
-64.1866
 30
0.0
 10
-8.5981
 20
-64.1866
 30
0.0
 10
-8.5981
 20
-64.1866
 30
0.0
 10
-8.5981
 20
-64.1866
 30
0.0
 10
-8.5981
 20
-72.1866
 30
0.0
 10
-8.5981
 20
-72.1866
 30
0.0
 10
-8.5981
 20
-72.1866
 30
0.0
 10
-8.5981
 20
-72.7362
 30
0.0
 10
-8.1489
 20
-73.1866
 30
0.0
 10
-7.5981
 20
-73.1866
 30
0.0
 10
-7.5981
 20
-73.1866
 30
0.0
 10
-7.5981
 20
-73.1866
 30
0.0
 10
-2.5981
 20
-73.1866
 30
0.0
 10
-2.5981
 20
-73.1866
 30
0.0
 10
-2.5981
 20
-73.1866
 30
0.0
 10
-2.0473
 20
-73.1866
 30
0.0
 10
-1.5981
 20
-72.7374
 30
0.0
 10
-1.5981
 20
-72.1866
 30
0.0
 10
-1.5981
 20
-72.1866
 30
0.0
 10
-1.5981
 20
-72.1866
 30
0.0
 10
-1.5981
 20
-64.1866
 30
0.0
 10
-1.5981
 20
-64.1866
 30
0.0
 10
-1.5981
 20
-64.1866
 30
0.0
 10
-1.5981
 20
-64.1866
 30
0.0
 10
2.9019
 20
-64.1866
 30
0.0
 10
2.9019
 20
-64.1866
 30
0.0
 10
2.9019
 20
-64.1866
 30
0.0
 10
2.9019
 20
-64.1866
 30
0.0
 10
2.9019
 20
-58.1866
 30
0.0
 10
2.9019
 20
-58.1866
 30
0.0
 10
2.9019
 20
-58.1866
 30
0.0
 10
2.9019
 20
-55.9835
 30
0.0
 10
1.1049
 20
-54.1866
 30
0.0
 10
-1.0981
 20
-54.1866
 30
0.0
  0
SPLINE
  5
5B
330
1F
100
AcDbEntity
  8
Layer 1
370
    20
100
AcDbSpline
210
0.0
220
0.0
230
1.0
 70
    11
 71
     3
 72
    20
 73
    16
 74
     0
 42
0.0000000001
 43
0.0000000001
 40
0.0
 40
0.0
 40
0.0
 40
0.0
 40
0.2
 40
0.2
 40
0.2
 40
0.2
 40
0.4
 40
0.4
 40
0.4
 40
0.4
 40
0.6
 40
0.6
 40
0.6
 40
0.6
 40
1.0
 40
1.0
 40
1.0
 40
1.0
 10
-23.0981
 20
-57.1866
 30
0.0
 10
-22.5459
 20
-57.1866
 30
0.0
 10
-22.0981
 20
-57.6343
 30
0.0
 10
-22.0981
 20
-58.1866
 30
0.0
 10
-22.0981
 20
-58.1866
 30
0.0
 10
-22.0981
 20
-58.7388
 30
0.0
 10
-22.5459
 20
-59.1866
 30
0.0
 10
-23.0981
 20
-59.1866
 30
0.0
 10
-23.0981
 20
-59.1866
 30
0.0
 10
-23.6504
 20
-59.1866
 30
0.0
 10
-24.0981
 20
-58.7388
 30
0.0
 10
-24.0981
 20
-58.1866
 30
0.0
 10
-24.0981
 20
-58.1866
 30
0.0
 10
-24.0981
 20
-57.6343
 30
0.0
 10
-23.6504
 20
-57.1866
 30
0.0
 10
-23.0981
 20
-57.1866
 30
0.0
  0
SPLINE
  5
5C
330
1F
100
AcDbEntity
  8
Layer 1
370
    20
100
AcDbSpline
210
0.0
220
0.0
230
1.0
 70
    11
 71
     3
 72
    20
 73
    16
 74
     0
 42
0.0000000001
 43
0.0000000001
 40
0.0
 40
0.0
 40
0.0
 40
0.0
 40
0.2
 40
0.2
 40
0.2
 40
0.2
 40
0.4
 40
0.4
 40
0.4
 40
0.4
 40
0.6
 40
0.6
 40
0.6
 40
0.6
 40
1.0
 40
1.0
 40
1.0
 40
1.0
 10
-1.0981
 20
-57.1866
 30
0.0
 10
-0.5459
 20
-57.1866
 30
0.0
 10
-0.0981
 20
-57.6343
 30
0.0
 10
-0.0981
 20
-58.1866
 30
0.0
 10
-0.0981
 20
-58.1866
 30
0.0
 10
-0.0981
 20
-58.7388
 30
0.0
 10
-0.5459
 20
-59.1866
 30
0.0
 10
-1.0981
 20
-59.1866
 30
0.0
 10
-1.0981
 20
-59.1866
 30
0.0
 10
-1.6504
 20
-59.1866
 30
0.0
 10
-2.0981
 20
-58.7388
 30
0.0
 10
-2.0981
 20
-58.1866
 30
0.0
 10
-2.0981
 20
-58.1866
 30
0.0
 10
-2.0981
 20
-57.6343
 30
0.0
 10
-1.6504
 20
-57.1866
 30
0.0
 10
-1.0981
 20
-57.1866
 30
0.0
  0
SPLINE
  5
5D
330
1F
100
AcDbEntity
  8
Layer 1
370
    20
100
AcDbSpline
210
0.0
220
0.0
230
1.0
 70
    11
 71
     3
 72
    36
 73
    32
 74
     0
 42
0.0000000001
 43
0.0000000001
 40
0.0
 40
0.0
 40
0.0
 40
0.0
 40
0.1111111111111111
 40
0.1111111111111111
 40
0.1111111111111111
 40
0.1111111111111111
 40
0.2222222222222222
 40
0.2222222222222222
 40
0.2222222222222222
 40
0.2222222222222222
 40
0.3333333333333333
 40
0.3333333333333333
 40
0.3333333333333333
 40
0.3333333333333333
 40
0.4444444444444444
 40
0.4444444444444444
 40
0.4444444444444444
 40
0.4444444444444444
 40
0.5555555555555556
 40
0.5555555555555556
 40
0.5555555555555556
 40
0.5555555555555556
 40
0.6666666666666666
 40
0.6666666666666666
 40
0.6666666666666666
 40
0.6666666666666666
 40
0.7777777777777778
 40
0.7777777777777778
 40
0.7777777777777778
 40
0.7777777777777778
 40
1.0
 40
1.0
 40
1.0
 40
1.0
 10
15.9017
 20
32.8135
 30
0.0
 10
15.9017
 20
32.8135
 30
0.0
 10
15.9019
 20
32.8135
 30
0.0
 10
15.9019
 20
32.8135
 30
0.0
 10
15.9019
 20
32.8135
 30
0.0
 10
17.2769
 20
32.8135
 30
0.0
 10
18.4018
 20
31.6887
 30
0.0
 10
18.4018
 20
30.3136
 30
0.0
 10
18.4018
 20
30.3136
 30
0.0
 10
18.4018
 20
30.3136
 30
0.0
 10
18.4018
 20
10.3133
 30
0.0
 10
18.4018
 20
10.3133
 30
0.0
 10
18.4018
 20
10.3133
 30
0.0
 10
18.4018
 20
8.9383
 30
0.0
 10
17.2769
 20
7.8135
 30
0.0
 10
15.9019
 20
7.8135
 30
0.0
 10
15.9019
 20
7.8135
 30
0.0
 10
15.9019
 20
7.8135
 30
0.0
 10
15.9017
 20
7.8135
 30
0.0
 10
15.9017
 20
7.8135
 30
0.0
 10
15.9017
 20
7.8135
 30
0.0
 10
14.5267
 20
7.8135
 30
0.0
 10
13.4018
 20
8.9383
 30
0.0
 10
13.4018
 20
10.3133
 30
0.0
 10
13.4018
 20
10.3133
 30
0.0
 10
13.4018
 20
10.3133
 30
0.0
 10
13.4018
 20
30.3136
 30
0.0
 10
13.4018
 20
30.3136
 30
0.0
 10
13.4018
 20
30.3136
 30
0.0
 10
13.4018
 20
31.6887
 30
0.0
 10
14.5267
 20
32.8135
 30
0.0
 10
15.9017
 20
32.8135
 30
0.0
  0
SPLINE
  5
5E
330
1F
100
AcDbEntity
  8
Layer 1
370
    20
100
AcDbSpline
210
0.0
220
0.0
230
1.0
 70
    11
 71
     3
 72
    36
 73
    32
 74
     0
 42
0.0000000001
 43
0.0000000001
 40
0.0
 40
0.0
 40
0.0
 40
0.0
 40
0.1111111111111111
 40
0.1111111111111111
 40
0.1111111111111111
 40
0.1111111111111111
 40
0.2222222222222222
 40
0.2222222222222222
 40
0.2222222222222222
 40
0.2222222222222222
 40
0.3333333333333333
 40
0.3333333333333333
 40
0.3333333333333333
 40
0.3333333333333333
 40
0.4444444444444444
 40
0.4444444444444444
 40
0.4444444444444444
 40
0.4444444444444444
 40
0.5555555555555556
 40
0.5555555555555556
 40
0.5555555555555556
 40
0.5555555555555556
 40
0.6666666666666666
 40
0.6666666666666666
 40
0.6666666666666666
 40
0.6666666666666666
 40
0.7777777777777778
 40
0.7777777777777778
 40
0.7777777777777778
 40
0.7777777777777778
 40
1.0
 40
1.0
 40
1.0
 40
1.0
 10
244.9018
 20
32.8135
 30
0.0
 10
244.9018
 20
32.8135
 30
0.0
 10
244.902
 20
32.8135
 30
0.0
 10
244.902
 20
32.8135
 30
0.0
 10
244.902
 20
32.8135
 30
0.0
 10
246.277
 20
32.8135
 30
0.0
 10
247.4019
 20
31.6887
 30
0.0
 10
247.4019
 20
30.3136
 30
0.0
 10
247.4019
 20
30.3136
 30
0.0
 10
247.4019
 20
30.3136
 30
0.0
 10
247.4019
 20
10.3133
 30
0.0
 10
247.4019
 20
10.3133
 30
0.0
 10
247.4019
 20
10.3133
 30
0.0
 10
247.4019
 20
8.9383
 30
0.0
 10
246.277
 20
7.8135
 30
0.0
 10
244.902
 20
7.8135
 30
0.0
 10
244.902
 20
7.8135
 30
0.0
 10
244.902
 20
7.8135
 30
0.0
 10
244.9018
 20
7.8135
 30
0.0
 10
244.9018
 20
7.8135
 30
0.0
 10
244.9018
 20
7.8135
 30
0.0
 10
243.5268
 20
7.8135
 30
0.0
 10
242.4019
 20
8.9383
 30
0.0
 10
242.4019
 20
10.3133
 30
0.0
 10
242.4019
 20
10.3133
 30
0.0
 10
242.4019
 20
10.3133
 30
0.0
 10
242.4019
 20
30.3136
 30
0.0
 10
242.4019
 20
30.3136
 30
0.0
 10
242.4019
 20
30.3136
 30
0.0
 10
242.4019
 20
31.6887
 30
0.0
 10
243.5268
 20
32.8135
 30
0.0
 10
244.9018
 20
32.8135
 30
0.0
  0
SPLINE
  5
5F
330
1F
100
AcDbEntity
  8
Layer 1
370
    20
100
AcDbSpline
210
0.0
220
0.0
230
1.0
 70
    11
 71
     3
 72
    36
 73
    32
 74
     0
 42
0.0000000001
 43
0.0000000001
 40
0.0
 40
0.0
 40
0.0
 40
0.0
 40
0.1111111111111111
 40
0.1111111111111111
 40
0.1111111111111111
 40
0.1111111111111111
 40
0.2222222222222222
 40
0.2222222222222222
 40
0.2222222222222222
 40
0.2222222222222222
 40
0.3333333333333333
 40
0.3333333333333333
 40
0.3333333333333333
 40
0.3333333333333333
 40
0.4444444444444444
 40
0.4444444444444444
 40
0.4444444444444444
 40
0.4444444444444444
 40
0.5555555555555556
 40
0.5555555555555556
 40
0.5555555555555556
 40
0.5555555555555556
 40
0.6666666666666666
 40
0.6666666666666666
 40
0.6666666666666666
 40
0.6666666666666666
 40
0.7777777777777778
 40
0.7777777777777778
 40
0.7777777777777778
 40
0.7777777777777778
 40
1.0
 40
1.0
 40
1.0
 40
1.0
 10
15.9017
 20
-13.9366
 30
0.0
 10
15.9017
 20
-13.9366
 30
0.0
 10
15.9019
 20
-13.9366
 30
0.0
 10
15.9019
 20
-13.9366
 30
0.0
 10
15.9019
 20
-13.9366
 30
0.0
 10
17.2769
 20
-13.9366
 30
0.0
 10
18.4018
 20
-15.0614
 30
0.0
 10
18.4018
 20
-16.4365
 30
0.0
 10
18.4018
 20
-16.4365
 30
0.0
 10
18.4018
 20
-16.4365
 30
0.0
 10
18.4018
 20
-36.4368
 30
0.0
 10
18.4018
 20
-36.4368
 30
0.0
 10
18.4018
 20
-36.4368
 30
0.0
 10
18.4018
 20
-37.8118
 30
0.0
 10
17.2769
 20
-38.9366
 30
0.0
 10
15.9019
 20
-38.9366
 30
0.0
 10
15.9019
 20
-38.9366
 30
0.0
 10
15.9019
 20
-38.9366
 30
0.0
 10
15.9017
 20
-38.9366
 30
0.0
 10
15.9017
 20
-38.9366
 30
0.0
 10
15.9017
 20
-38.9366
 30
0.0
 10
14.5267
 20
-38.9366
 30
0.0
 10
13.4018
 20
-37.8118
 30
0.0
 10
13.4018
 20
-36.4368
 30
0.0
 10
13.4018
 20
-36.4368
 30
0.0
 10
13.4018
 20
-36.4368
 30
0.0
 10
13.4018
 20
-16.4365
 30
0.0
 10
13.4018
 20
-16.4365
 30
0.0
 10
13.4018
 20
-16.4365
 30
0.0
 10
13.4018
 20
-15.0614
 30
0.0
 10
14.5267
 20
-13.9366
 30
0.0
 10
15.9017
 20
-13.9366
 30
0.0
  0
SPLINE
  5
60
330
1F
100
AcDbEntity
  8
Layer 1
370
    20
100
AcDbSpline
210
0.0
220
0.0
230
1.0
 70
    11
 71
     3
 72
    36
 73
    32
 74
     0
 42
0.0000000001
 43
0.0000000001
 40
0.0
 40
0.0
 40
0.0
 40
0.0
 40
0.1111111111111111
 40
0.1111111111111111
 40
0.1111111111111111
 40
0.1111111111111111
 40
0.2222222222222222
 40
0.2222222222222222
 40
0.2222222222222222
 40
0.2222222222222222
 40
0.3333333333333333
 40
0.3333333333333333
 40
0.3333333333333333
 40
0.3333333333333333
 40
0.4444444444444444
 40
0.4444444444444444
 40
0.4444444444444444
 40
0.4444444444444444
 40
0.5555555555555556
 40
0.5555555555555556
 40
0.5555555555555556
 40
0.5555555555555556
 40
0.6666666666666666
 40
0.6666666666666666
 40
0.6666666666666666
 40
0.6666666666666666
 40
0.7777777777777778
 40
0.7777777777777778
 40
0.7777777777777778
 40
0.7777777777777778
 40
1.0
 40
1.0
 40
1.0
 40
1.0
 10
244.9018
 20
-13.9366
 30
0.0
 10
244.9018
 20
-13.9366
 30
0.0
 10
244.902
 20
-13.9366
 30
0.0
 10
244.902
 20
-13.9366
 30
0.0
 10
244.902
 20
-13.9366
 30
0.0
 10
246.277
 20
-13.9366
 30
0.0
 10
247.4019
 20
-15.0614
 30
0.0
 10
247.4019
 20
-16.4365
 30
0.0
 10
247.4019
 20
-16.4365
 30
0.0
 10
247.4019
 20
-16.4365
 30
0.0
 10
247.4019
 20
-36.4368
 30
0.0
 10
247.4019
 20
-36.4368
 30
0.0
 10
247.4019
 20
-36.4368
 30
0.0
 10
247.4019
 20
-37.8118
 30
0.0
 10
246.277
 20
-38.9366
 30
0.0
 10
244.902
 20
-38.9366
 30
0.0
 10
244.902
 20
-38.9366
 30
0.0
 10
244.902
 20
-38.9366
 30
0.0
 10
244.9018
 20
-38.9366
 30
0.0
 10
244.9018
 20
-38.9366
 30
0.0
 10
244.9018
 20
-38.9366
 30
0.0
 10
243.5268
 20
-38.9366
 30
0.0
 10
242.4019
 20
-37.8118
 30
0.0
 10
242.4019
 20
-36.4368
 30
0.0
 10
242.4019
 20
-36.4368
 30
0.0
 10
242.4019
 20
-36.4368
 30
0.0
 10
242.4019
 20
-16.4365
 30
0.0
 10
242.4019
 20
-16.4365
 30
0.0
 10
242.4019
 20
-16.4365
 30
0.0
 10
242.4019
 20
-15.0614
 30
0.0
 10
243.5268
 20
-13.9366
 30
0.0
 10
244.9018
 20
-13.9366
 30
0.0
  0
SPLINE
  5
61
330
1F
100
AcDbEntity
  8
Layer 1
370
    20
100
AcDbSpline
210
0.0
220
0.0
230
1.0
 70
    11
 71
     3
 72
    36
 73
    32
 74
     0
 42
0.0000000001
 43
0.0000000001
 40
0.0
 40
0.0
 40
0.0
 40
0.0
 40
0.1111111111111111
 40
0.1111111111111111
 40
0.1111111111111111
 40
0.1111111111111111
 40
0.2222222222222222
 40
0.2222222222222222
 40
0.2222222222222222
 40
0.2222222222222222
 40
0.3333333333333333
 40
0.3333333333333333
 40
0.3333333333333333
 40
0.3333333333333333
 40
0.4444444444444444
 40
0.4444444444444444
 40
0.4444444444444444
 40
0.4444444444444444
 40
0.5555555555555556
 40
0.5555555555555556
 40
0.5555555555555556
 40
0.5555555555555556
 40
0.6666666666666666
 40
0.6666666666666666
 40
0.6666666666666666
 40
0.6666666666666666
 40
0.7777777777777778
 40
0.7777777777777778
 40
0.7777777777777778
 40
0.7777777777777778
 40
1.0
 40
1.0
 40
1.0
 40
1.0
 10
15.9017
 20
79.5634
 30
0.0
 10
15.9017
 20
79.5634
 30
0.0
 10
15.9019
 20
79.5634
 30
0.0
 10
15.9019
 20
79.5634
 30
0.0
 10
15.9019
 20
79.5634
 30
0.0
 10
17.2769
 20
79.5634
 30
0.0
 10
18.4018
 20
78.4386
 30
0.0
 10
18.4018
 20
77.0635
 30
0.0
 10
18.4018
 20
77.0635
 30
0.0
 10
18.4018
 20
77.0635
 30
0.0
 10
18.4018
 20
57.0632
 30
0.0
 10
18.4018
 20
57.0632
 30
0.0
 10
18.4018
 20
57.0632
 30
0.0
 10
18.4018
 20
55.6882
 30
0.0
 10
17.2769
 20
54.5634
 30
0.0
 10
15.9019
 20
54.5634
 30
0.0
 10
15.9019
 20
54.5634
 30
0.0
 10
15.9019
 20
54.5634
 30
0.0
 10
15.9017
 20
54.5634
 30
0.0
 10
15.9017
 20
54.5634
 30
0.0
 10
15.9017
 20
54.5634
 30
0.0
 10
14.5267
 20
54.5634
 30
0.0
 10
13.4018
 20
55.6882
 30
0.0
 10
13.4018
 20
57.0632
 30
0.0
 10
13.4018
 20
57.0632
 30
0.0
 10
13.4018
 20
57.0632
 30
0.0
 10
13.4018
 20
77.0635
 30
0.0
 10
13.4018
 20
77.0635
 30
0.0
 10
13.4018
 20
77.0635
 30
0.0
 10
13.4018
 20
78.4386
 30
0.0
 10
14.5267
 20
79.5634
 30
0.0
 10
15.9017
 20
79.5634
 30
0.0
  0
SPLINE
  5
62
330
1F
100
AcDbEntity
  8
Layer 1
370
    20
100
AcDbSpline
210
0.0
220
0.0
230
1.0
 70
    11
 71
     3
 72
    36
 73
    32
 74
     0
 42
0.0000000001
 43
0.0000000001
 40
0.0
 40
0.0
 40
0.0
 40
0.0
 40
0.1111111111111111
 40
0.1111111111111111
 40
0.1111111111111111
 40
0.1111111111111111
 40
0.2222222222222222
 40
0.2222222222222222
 40
0.2222222222222222
 40
0.2222222222222222
 40
0.3333333333333333
 40
0.3333333333333333
 40
0.3333333333333333
 40
0.3333333333333333
 40
0.4444444444444444
 40
0.4444444444444444
 40
0.4444444444444444
 40
0.4444444444444444
 40
0.5555555555555556
 40
0.5555555555555556
 40
0.5555555555555556
 40
0.5555555555555556
 40
0.6666666666666666
 40
0.6666666666666666
 40
0.6666666666666666
 40
0.6666666666666666
 40
0.7777777777777778
 40
0.7777777777777778
 40
0.7777777777777778
 40
0.7777777777777778
 40
1.0
 40
1.0
 40
1.0
 40
1.0
 10
244.9018
 20
79.5634
 30
0.0
 10
244.9018
 20
79.5634
 30
0.0
 10
244.902
 20
79.5634
 30
0.0
 10
244.902
 20
79.5634
 30
0.0
 10
244.902
 20
79.5634
 30
0.0
 10
246.277
 20
79.5634
 30
0.0
 10
247.4019
 20
78.4386
 30
0.0
 10
247.4019
 20
77.0635
 30
0.0
 10
247.4019
 20
77.0635
 30
0.0
 10
247.4019
 20
77.0635
 30
0.0
 10
247.4019
 20
57.0632
 30
0.0
 10
247.4019
 20
57.0632
 30
0.0
 10
247.4019
 20
57.0632
 30
0.0
 10
247.4019
 20
55.6882
 30
0.0
 10
246.277
 20
54.5634
 30
0.0
 10
244.902
 20
54.5634
 30
0.0
 10
244.902
 20
54.5634
 30
0.0
 10
244.902
 20
54.5634
 30
0.0
 10
244.9018
 20
54.5634
 30
0.0
 10
244.9018
 20
54.5634
 30
0.0
 10
244.9018
 20
54.5634
 30
0.0
 10
243.5268
 20
54.5634
 30
0.0
 10
242.4019
 20
55.6882
 30
0.0
 10
242.4019
 20
57.0632
 30
0.0
 10
242.4019
 20
57.0632
 30
0.0
 10
242.4019
 20
57.0632
 30
0.0
 10
242.4019
 20
77.0635
 30
0.0
 10
242.4019
 20
77.0635
 30
0.0
 10
242.4019
 20
77.0635
 30
0.0
 10
242.4019
 20
78.4386
 30
0.0
 10
243.5268
 20
79.5634
 30
0.0
 10
244.9018
 20
79.5634
 30
0.0
  0
LWPOLYLINE
  5
63
330
1F
100
AcDbEntity
  8
Layer 1
370
    20
100
AcDbPolyline
 90
        5
 70
     1
 43
0.0
 10
214.4018
 20
-63.1866
 10
221.4018
 20
-63.1866
 10
221.4018
 20
-58.1866
 10
214.4018
 20
-58.1866
 10
214.4018
 20
-63.1866
  0
LWPOLYLINE
  5
64
330
1F
100
AcDbEntity
  8
Layer 1
370
    20
100
AcDbPolyline
 90
        5
 70
     1
 43
0.0
 10
228.4018
 20
-63.1866
 10
235.4018
 20
-63.1866
 10
235.4018
 20
-58.1866
 10
228.4018
 20
-58.1866
 10
228.4018
 20
-63.1866
  0
SPLINE
  5
65
330
1F
100
AcDbEntity
  8
Layer 1
370
    20
100
AcDbSpline
210
0.0
220
0.0
230
1.0
 70
    11
 71
     3
 72
    76
 73
    72
 74
     0
 42
0.0000000001
 43
0.0000000001
 40
0.0
 40
0.0
 40
0.0
 40
0.0
 40
0.0526315789473684
 40
0.0526315789473684
 40
0.0526315789473684
 40
0.0526315789473684
 40
0.1052631578947368
 40
0.1052631578947368
 40
0.1052631578947368
 40
0.1052631578947368
 40
0.1578947368421053
 40
0.1578947368421053
 40
0.1578947368421053
 40
0.1578947368421053
 40
0.2105263157894737
 40
0.2105263157894737
 40
0.2105263157894737
 40
0.2105263157894737
 40
0.2631578947368421
 40
0.2631578947368421
 40
0.2631578947368421
 40
0.2631578947368421
 40
0.3157894736842105
 40
0.3157894736842105
 40
0.3157894736842105
 40
0.3157894736842105
 40
0.3684210526315789
 40
0.3684210526315789
 40
0.3684210526315789
 40
0.3684210526315789
 40
0.4210526315789473
 40
0.4210526315789473
 40
0.4210526315789473
 40
0.4210526315789473
 40
0.4736842105263158
 40
0.4736842105263158
 40
0.4736842105263158
 40
0.4736842105263158
 40
0.5263157894736842
 40
0.5263157894736842
 40
0.5263157894736842
 40
0.5263157894736842
 40
0.5789473684210527
 40
0.5789473684210527
 40
0.5789473684210527
 40
0.5789473684210527
 40
0.631578947368421
 40
0.631578947368421
 40
0.631578947368421
 40
0.631578947368421
 40
0.6842105263157895
 40
0.6842105263157895
 40
0.6842105263157895
 40
0.6842105263157895
 40
0.7368421052631579
 40
0.7368421052631579
 40
0.7368421052631579
 40
0.7368421052631579
 40
0.7894736842105263
 40
0.7894736842105263
 40
0.7894736842105263
 40
0.7894736842105263
 40
0.8421052631578947
 40
0.8421052631578947
 40
0.8421052631578947
 40
0.8421052631578947
 40
0.8947368421052632
 40
0.8947368421052632
 40
0.8947368421052632
 40
0.8947368421052632
 40
1.0
 40
1.0
 40
1.0
 40
1.0
 10
-67.0981
 20
-38.6866
 30
0.0
 10
-67.0981
 20
-38.6866
 30
0.0
 10
-89.0981
 20
-38.6866
 30
0.0
 10
-89.0981
 20
-38.6866
 30
0.0
 10
-89.0981
 20
-38.6866
 30
0.0
 10
-91.3011
 20
-38.6866
 30
0.0
 10
-93.0981
 20
-40.4838
 30
0.0
 10
-93.0981
 20
-42.6866
 30
0.0
 10
-93.0981
 20
-42.6866
 30
0.0
 10
-93.0981
 20
-42.6866
 30
0.0
 10
-93.0981
 20
-64.1866
 30
0.0
 10
-93.0981
 20
-64.1866
 30
0.0
 10
-93.0981
 20
-64.1866
 30
0.0
 10
-93.0981
 20
-64.1866
 30
0.0
 10
-88.5981
 20
-64.1866
 30
0.0
 10
-88.5981
 20
-64.1866
 30
0.0
 10
-88.5981
 20
-64.1866
 30
0.0
 10
-88.5981
 20
-64.1866
 30
0.0
 10
-88.5981
 20
-72.1866
 30
0.0
 10
-88.5981
 20
-72.1866
 30
0.0
 10
-88.5981
 20
-72.1866
 30
0.0
 10
-88.5981
 20
-72.7363
 30
0.0
 10
-88.1489
 20
-73.1866
 30
0.0
 10
-87.5981
 20
-73.1866
 30
0.0
 10
-87.5981
 20
-73.1866
 30
0.0
 10
-87.5981
 20
-73.1866
 30
0.0
 10
-82.5981
 20
-73.1866
 30
0.0
 10
-82.5981
 20
-73.1866
 30
0.0
 10
-82.5981
 20
-73.1866
 30
0.0
 10
-82.0473
 20
-73.1866
 30
0.0
 10
-81.5981
 20
-72.7374
 30
0.0
 10
-81.5981
 20
-72.1866
 30
0.0
 10
-81.5981
 20
-72.1866
 30
0.0
 10
-81.5981
 20
-72.1866
 30
0.0
 10
-81.5981
 20
-64.1866
 30
0.0
 10
-81.5981
 20
-64.1866
 30
0.0
 10
-81.5981
 20
-64.1866
 30
0.0
 10
-81.5981
 20
-64.1866
 30
0.0
 10
-74.5981
 20
-64.1866
 30
0.0
 10
-74.5981
 20
-64.1866
 30
0.0
 10
-74.5981
 20
-64.1866
 30
0.0
 10
-74.5981
 20
-64.1866
 30
0.0
 10
-74.5981
 20
-72.1866
 30
0.0
 10
-74.5981
 20
-72.1866
 30
0.0
 10
-74.5981
 20
-72.1866
 30
0.0
 10
-74.5981
 20
-72.7362
 30
0.0
 10
-74.1489
 20
-73.1866
 30
0.0
 10
-73.5981
 20
-73.1866
 30
0.0
 10
-73.5981
 20
-73.1866
 30
0.0
 10
-73.5981
 20
-73.1866
 30
0.0
 10
-68.5981
 20
-73.1866
 30
0.0
 10
-68.5981
 20
-73.1866
 30
0.0
 10
-68.5981
 20
-73.1866
 30
0.0
 10
-68.0473
 20
-73.1866
 30
0.0
 10
-67.5981
 20
-72.7374
 30
0.0
 10
-67.5981
 20
-72.1866
 30
0.0
 10
-67.5981
 20
-72.1866
 30
0.0
 10
-67.5981
 20
-72.1866
 30
0.0
 10
-67.5981
 20
-64.1866
 30
0.0
 10
-67.5981
 20
-64.1866
 30
0.0
 10
-67.5981
 20
-64.1866
 30
0.0
 10
-67.5981
 20
-64.1866
 30
0.0
 10
-63.0981
 20
-64.1866
 30
0.0
 10
-63.0981
 20
-64.1866
 30
0.0
 10
-63.0981
 20
-64.1866
 30
0.0
 10
-63.0981
 20
-64.1866
 30
0.0
 10
-63.0981
 20
-42.6866
 30
0.0
 10
-63.0981
 20
-42.6866
 30
0.0
 10
-63.0981
 20
-42.6866
 30
0.0
 10
-63.0981
 20
-40.4835
 30
0.0
 10
-64.8951
 20
-38.6866
 30
0.0
 10
-67.0981
 20
-38.6866
 30
0.0
  0
ELLIPSE
  5
66
330
1F
100
AcDbEntity
  8
Layer 1
370
    20
100
AcDbEllipse
 10
-78.0981
 20
-43.6866
 30
0.0
 11
0.0
 21
1.9
 31
0.0
210
0.0
220
0.0
230
1.0
 40
1.0
 41
0.0
 42
6.283185307179586
  0
ELLIPSE
  5
67
330
1F
100
AcDbEntity
  8
Layer 1
 62
     3
370
    20
100
AcDbEllipse
 10
63.4018
 20
61.3135
 30
0.0
 11
0.0
 21
42.5
 31
0.0
210
0.0
220
0.0
230
1.0
 40
1.0
 41
0.0
 42
6.283185307179586
  0
ENDSEC
  0
SECTION
  2
OBJECTS
  0
DICTIONARY
  5
C
330
0
100
AcDbDictionary
281
     1
  3
ACAD_GROUP
350
D
  3
ACAD_LAYOUT
350
1A
  3
ACAD_MATERIAL
350
3B
  3
ACAD_MLEADERSTYLE
350
6A
  3
ACAD_MLINESTYLE
350
17
  3
ACAD_PLOTSETTINGS
350
19
  3
ACAD_PLOTSTYLENAME
350
E
  3
ACAD_VISUALSTYLE
350
2A
  3
AcDbVariableDictionary
350
68
  0
DICTIONARY
  5
D
102
{ACAD_REACTORS
330
C
102
}
330
C
100
AcDbDictionary
281
     1
  0
DICTIONARY
  5
1A
102
{ACAD_REACTORS
330
C
102
}
330
C
100
AcDbDictionary
281
     1
  3
Layout1
350
1E
  3
Layout2
350
26
  3
Model
350
22
  0
DICTIONARY
  5
3B
102
{ACAD_REACTORS
330
C
102
}
330
C
100
AcDbDictionary
281
     1
  3
ByBlock
350
3D
  3
ByLayer
350
3C
  3
Global
350
3E
  0
DICTIONARY
  5
6A
102
{ACAD_REACTORS
330
C
102
}
330
C
100
AcDbDictionary
281
     1
  0
DICTIONARY
  5
17
102
{ACAD_REACTORS
330
C
102
}
330
C
100
AcDbDictionary
281
     1
  3
Standard
350
18
  0
DICTIONARY
  5
19
102
{ACAD_REACTORS
330
C
102
}
330
C
100
AcDbDictionary
281
     1
  0
ACDBDICTIONARYWDFLT
  5
E
102
{ACAD_REACTORS
330
C
102
}
330
C
100
AcDbDictionary
281
     1
  3
Normal
350
F
100
AcDbDictionaryWithDefault
340
F
  0
DICTIONARY
  5
2A
102
{ACAD_REACTORS
330
C
102
}
330
C
100
AcDbDictionary
281
     1
  3
2dWireframe
350
2F
  3
3D Hidden
350
31
  3
3dWireframe
350
30
  3
Basic
350
32
  3
Brighten
350
36
  3
ColorChange
350
3A
  3
Conceptual
350
34
  3
Dim
350
35
  3
Facepattern
350
39
  3
Flat
350
2B
  3
FlatWithEdges
350
2C
  3
Gouraud
350
2D
  3
GouraudWithEdges
350
2E
  3
Linepattern
350
38
  3
Realistic
350
33
  3
Thicken
350
37
  0
DICTIONARY
  5
68
102
{ACAD_REACTORS
330
C
102
}
330
C
100
AcDbDictionary
281
     1
  3
DIMASSOC
350
6B
  3
HIDETEXT
350
6C
  0
LAYOUT
  5
1E
102
{ACAD_REACTORS
330
1A
102
}
330
1A
100
AcDbPlotSettings
  1

  2
none_device
  4

  6

 40
0.0
 41
0.0
 42
0.0
 43
0.0
 44
0.0
 45
0.0
 46
0.0
 47
0.0
 48
0.0
 49
0.0
140
0.0
141
0.0
142
1.0
143
1.0
 70
   688
 72
     0
 73
     0
 74
     5
  7

 75
    16
147
1.0
148
0.0
149
0.0
100
AcDbLayout
  1
Layout1
 70
     1
 71
     1
 10
0.0
 20
0.0
 11
12.0
 21
9.0
 12
0.0
 22
0.0
 32
0.0
 14
1.000000000000000E+20
 24
1.000000000000000E+20
 34
1.000000000000000E+20
 15
-1.000000000000000E+20
 25
-1.000000000000000E+20
 35
-1.000000000000000E+20
146
0.0
 13
0.0
 23
0.0
 33
0.0
 16
1.0
 26
0.0
 36
0.0
 17
0.0
 27
1.0
 37
0.0
 76
     0
330
1B
  0
LAYOUT
  5
26
102
{ACAD_REACTORS
330
1A
102
}
330
1A
100
AcDbPlotSettings
  1

  2
none_device
  4

  6

 40
0.0
 41
0.0
 42
0.0
 43
0.0
 44
0.0
 45
0.0
 46
0.0
 47
0.0
 48
0.0
 49
0.0
140
0.0
141
0.0
142
1.0
143
1.0
 70
   688
 72
     0
 73
     0
 74
     5
  7

 75
    16
147
1.0
148
0.0
149
0.0
100
AcDbLayout
  1
Layout2
 70
     1
 71
     2
 10
0.0
 20
0.0
 11
0.0
 21
0.0
 12
0.0
 22
0.0
 32
0.0
 14
0.0
 24
0.0
 34
0.0
 15
0.0
 25
0.0
 35
0.0
146
0.0
 13
0.0
 23
0.0
 33
0.0
 16
1.0
 26
0.0
 36
0.0
 17
0.0
 27
1.0
 37
0.0
 76
     0
330
23
  0
LAYOUT
  5
22
102
{ACAD_REACTORS
330
1A
102
}
330
1A
100
AcDbPlotSettings
  1

  2
none_device
  4

  6

 40
0.0
 41
0.0
 42
0.0
 43
0.0
 44
0.0
 45
0.0
 46
0.0
 47
0.0
 48
0.0
 49
0.0
140
0.0
141
0.0
142
1.0
143
1.0
 70
  1712
 72
     0
 73
     0
 74
     0
  7

 75
     0
147
1.0
148
0.0
149
0.0
100
AcDbLayout
  1
Model
 70
     1
 71
     0
 10
0.0
 20
0.0
 11
12.0
 21
9.0
 12
0.0
 22
0.0
 32
0.0
 14
-93.1981
 24
-73.2866
 34
0.0
 15
255.0019
 25
113.9134
 35
0.0
146
0.0
 13
0.0
 23
0.0
 33
0.0
 16
1.0
 26
0.0
 36
0.0
 17
0.0
 27
1.0
 37
0.0
 76
     0
330
1F
331
29
  0
MATERIAL
  5
3D
102
{ACAD_REACTORS
330
3B
102
}
102
{ACAD_XDICTIONARY
360
8F
102
}
330
3B
100
AcDbMaterial
  1
ByBlock
  0
MATERIAL
  5
3C
102
{ACAD_REACTORS
330
3B
102
}
102
{ACAD_XDICTIONARY
360
8D
102
}
330
3B
100
AcDbMaterial
  1
ByLayer
  0
MATERIAL
  5
3E
102
{ACAD_REACTORS
330
3B
102
}
102
{ACAD_XDICTIONARY
360
91
102
}
330
3B
100
AcDbMaterial
  1
Global
  0
MLINESTYLE
  5
18
102
{ACAD_REACTORS
330
17
102
}
330
17
100
AcDbMlineStyle
  2
Standard
 70
     0
  3

 62
   256
 51
90.0
 52
90.0
 71
     2
 49
0.5
 62
   256
  6
BYLAYER
 49
-0.5
 62
   256
  6
BYLAYER
  0
ACDBPLACEHOLDER
  5
F
102
{ACAD_REACTORS
330
E
102
}
330
E
  0
VISUALSTYLE
  5
2F
102
{ACAD_REACTORS
330
2A
102
}
102
{ACAD_XDICTIONARY
360
75
102
}
330
2A
100
AcDbVisualStyle
  2
2dWireframe
 70
     4
 71
     0
 72
     2
 73
     0
 90
        0
 40
-0.6
 41
-30.0
 62
     5
 63
     7
 74
     1
 91
        4
 64
     7
 65
   257
 75
     1
175
     1
 42
1.0
 92
        0
 66
   257
 43
1.0
 76
     1
 77
     6
 78
     2
 67
     7
 79
     5
170
     0
171
     0
290
     0
174
     0
 93
        1
 44
0.0
173
     0
291
     0
 45
0.0
1001
ACAD
1000
AcDbSavedByObjectVersion
1070
     0
  0
VISUALSTYLE
  5
31
102
{ACAD_REACTORS
330
2A
102
}
102
{ACAD_XDICTIONARY
360
79
102
}
330
2A
100
AcDbVisualStyle
  2
3D Hidden
 70
     6
 71
     1
 72
     2
 73
     2
 90
        0
 40
-0.6
 41
-30.0
 62
     5
 63
     7
 74
     2
 91
        2
 64
     7
 65
   257
 75
     2
175
     1
 42
40.0
 92
        0
 66
   257
 43
1.0
 76
     1
 77
     6
 78
     2
 67
     7
 79
     3
170
     0
171
     0
290
     0
174
     0
 93
        1
 44
0.0
173
     0
291
     0
 45
0.0
1001
ACAD
1000
AcDbSavedByObjectVersion
1070
     0
  0
VISUALSTYLE
  5
30
102
{ACAD_REACTORS
330
2A
102
}
102
{ACAD_XDICTIONARY
360
77
102
}
330
2A
100
AcDbVisualStyle
  2
3dWireframe
 70
     5
 71
     0
 72
     2
 73
     0
 90
        0
 40
-0.6
 41
-30.0
 62
     5
 63
     7
 74
     1
 91
        4
 64
     7
 65
   257
 75
     1
175
     1
 42
1.0
 92
        0
 66
   257
 43
1.0
 76
     1
 77
     6
 78
     2
 67
     7
 79
     5
170
     0
171
     0
290
     0
174
     0
 93
        1
 44
0.0
173
     0
291
     0
 45
0.0
1001
ACAD
1000
AcDbSavedByObjectVersion
1070
     0
  0
VISUALSTYLE
  5
32
102
{ACAD_REACTORS
330
2A
102
}
102
{ACAD_XDICTIONARY
360
7B
102
}
330
2A
100
AcDbVisualStyle
  2
Basic
 70
     7
 71
     1
 72
     0
 73
     1
 90
        0
 40
-0.6
 41
-30.0
 62
     5
 63
     7
 74
     0
 91
        4
 64
     7
 65
   257
 75
     1
175
     1
 42
1.0
 92
        8
 66
     7
 43
1.0
 76
     1
 77
     6
 78
     2
 67
     7
 79
     5
170
     0
171
     0
290
     0
174
     0
 93
        1
 44
0.0
173
     0
291
     1
 45
0.0
1001
ACAD
1000
AcDbSavedByObjectVersion
1070
     0
  0
VISUALSTYLE
  5
36
102
{ACAD_REACTORS
330
2A
102
}
102
{ACAD_XDICTIONARY
360
83
102
}
330
2A
100
AcDbVisualStyle
  2
Brighten
 70
    12
 71
     2
 72
     2
 73
     0
 90
        0
 40
-0.6
 41
-30.0
 62
     5
 63
     7
 74
     1
 91
        4
 64
     7
 65
   257
 75
     1
175
     1
 42
1.0
 92
        8
 66
     7
 43
1.0
 76
     1
 77
     6
 78
     2
 67
     7
 79
     5
170
     0
171
     0
290
     0
174
     0
 93
        1
 44
50.0
173
     0
291
     1
 45
0.0
1001
ACAD
1000
AcDbSavedByObjectVersion
1070
     0
  0
VISUALSTYLE
  5
3A
102
{ACAD_REACTORS
330
2A
102
}
102
{ACAD_XDICTIONARY
360
8B
102
}
330
2A
100
AcDbVisualStyle
  2
ColorChange
 70
    16
 71
     2
 72
     2
 73
     3
 90
        0
 40
-0.6
 41
-30.0
 62
     5
 63
     8
 74
     1
 91
        4
 64
     7
 65
   257
 75
     1
175
     1
 42
1.0
 92
        8
 66
     8
 43
1.0
 76
     1
 77
     6
 78
     2
 67
     7
 79
     5
170
     0
171
     0
290
     0
174
     0
 93
        1
 44
0.0
173
     0
291
     1
 45
0.0
1001
ACAD
1000
AcDbSavedByObjectVersion
1070
     0
  0
VISUALSTYLE
  5
34
102
{ACAD_REACTORS
330
2A
102
}
102
{ACAD_XDICTIONARY
360
7F
102
}
330
2A
100
AcDbVisualStyle
  2
Conceptual
 70
     9
 71
     3
 72
     2
 73
     0
 90
        0
 40
-0.6
 41
-30.0
 62
     5
 63
     7
 74
     2
 91
        2
 64
     7
 65
   257
 75
     1
175
     1
 42
40.0
 92
        8
 66
     7
 43
1.0
 76
     1
 77
     6
 78
     2
 67
     7
 79
     3
170
     0
171
     0
290
     0
174
     0
 93
        1
 44
0.0
173
     0
291
     0
 45
0.0
1001
ACAD
1000
AcDbSavedByObjectVersion
1070
     0
  0
VISUALSTYLE
  5
35
102
{ACAD_REACTORS
330
2A
102
}
102
{ACAD_XDICTIONARY
360
81
102
}
330
2A
100
AcDbVisualStyle
  2
Dim
 70
    11
 71
     2
 72
     2
 73
     0
 90
        0
 40
-0.6
 41
-30.0
 62
     5
 63
     7
 74
     1
 91
        4
 64
     7
 65
   257
 75
     1
175
     1
 42
1.0
 92
        8
 66
     7
 43
1.0
 76
     1
 77
     6
 78
     2
 67
     7
 79
     5
170
     0
171
     0
290
     0
174
     0
 93
        1
 44
-50.0
173
     0
291
     1
 45
0.0
1001
ACAD
1000
AcDbSavedByObjectVersion
1070
     0
  0
VISUALSTYLE
  5
39
102
{ACAD_REACTORS
330
2A
102
}
102
{ACAD_XDICTIONARY
360
89
102
}
330
2A
100
AcDbVisualStyle
  2
Facepattern
 70
    15
 71
     2
 72
     2
 73
     0
 90
        0
 40
-0.6
 41
-30.0
 62
     5
 63
     7
 74
     1
 91
        4
 64
     7
 65
   257
 75
     1
175
     1
 42
1.0
 92
        8
 66
     7
 43
1.0
 76
     1
 77
     6
 78
     2
 67
     7
 79
     5
170
     0
171
     0
290
     0
174
     0
 93
        1
 44
0.0
173
     0
291
     1
 45
0.0
1001
ACAD
1000
AcDbSavedByObjectVersion
1070
     0
  0
VISUALSTYLE
  5
2B
102
{ACAD_REACTORS
330
2A
102
}
102
{ACAD_XDICTIONARY
360
6D
102
}
330
2A
100
AcDbVisualStyle
  2
Flat
 70
     0
 71
     2
 72
     1
 73
     1
 90
        2
 40
-0.6
 41
30.0
 62
     5
 63
     7
 74
     0
 91
        4
 64
     7
 65
   257
 75
     1
175
     1
 42
1.0
 92
        8
 66
     7
 43
1.0
 76
     1
 77
     6
 78
     2
 67
     7
 79
     5
170
     0
171
     0
290
     0
174
     0
 93
       13
 44
0.0
173
     0
291
     1
 45
0.0
1001
ACAD
1000
AcDbSavedByObjectVersion
1070
     0
  0
VISUALSTYLE
  5
2C
102
{ACAD_REACTORS
330
2A
102
}
102
{ACAD_XDICTIONARY
360
6F
102
}
330
2A
100
AcDbVisualStyle
  2
FlatWithEdges
 70
     1
 71
     2
 72
     1
 73
     1
 90
        2
 40
-0.6
 41
30.0
 62
     5
 63
     7
 74
     1
 91
        4
 64
     7
 65
   257
 75
     1
175
     1
 42
1.0
 92
        0
 66
   257
 43
1.0
 76
     1
 77
     6
 78
     2
 67
     7
 79
     5
170
     0
171
     0
290
     0
174
     0
 93
       13
 44
0.0
173
     0
291
     1
 45
0.0
1001
ACAD
1000
AcDbSavedByObjectVersion
1070
     0
  0
VISUALSTYLE
  5
2D
102
{ACAD_REACTORS
330
2A
102
}
102
{ACAD_XDICTIONARY
360
71
102
}
330
2A
100
AcDbVisualStyle
  2
Gouraud
 70
     2
 71
     2
 72
     2
 73
     1
 90
        2
 40
-0.6
 41
30.0
 62
     5
 63
     7
 74
     0
 91
        4
 64
     7
 65
   257
 75
     1
175
     1
 42
1.0
 92
        0
 66
     7
 43
1.0
 76
     1
 77
     6
 78
     2
 67
     7
 79
     5
170
     0
171
     0
290
     0
174
     0
 93
       13
 44
0.0
173
     0
291
     1
 45
0.0
1001
ACAD
1000
AcDbSavedByObjectVersion
1070
     0
  0
VISUALSTYLE
  5
2E
102
{ACAD_REACTORS
330
2A
102
}
102
{ACAD_XDICTIONARY
360
73
102
}
330
2A
100
AcDbVisualStyle
  2
GouraudWithEdges
 70
     3
 71
     2
 72
     2
 73
     1
 90
        2
 40
-0.6
 41
30.0
 62
     5
 63
     7
 74
     1
 91
        4
 64
     7
 65
   257
 75
     1
175
     1
 42
1.0
 92
        0
 66
   257
 43
1.0
 76
     1
 77
     6
 78
     2
 67
     7
 79
     5
170
     0
171
     0
290
     0
174
     0
 93
       13
 44
0.0
173
     0
291
     1
 45
0.0
1001
ACAD
1000
AcDbSavedByObjectVersion
1070
     0
  0
VISUALSTYLE
  5
38
102
{ACAD_REACTORS
330
2A
102
}
102
{ACAD_XDICTIONARY
360
87
102
}
330
2A
100
AcDbVisualStyle
  2
Linepattern
 70
    14
 71
     2
 72
     2
 73
     0
 90
        0
 40
-0.6
 41
-30.0
 62
     5
 63
     7
 74
     1
 91
        4
 64
     7
 65
   257
 75
     7
175
     7
 42
1.0
 92
        8
 66
     7
 43
1.0
 76
     1
 77
     6
 78
     2
 67
     7
 79
     5
170
     0
171
     0
290
     0
174
     0
 93
        1
 44
0.0
173
     0
291
     1
 45
0.0
1001
ACAD
1000
AcDbSavedByObjectVersion
1070
     0
  0
VISUALSTYLE
  5
33
102
{ACAD_REACTORS
330
2A
102
}
102
{ACAD_XDICTIONARY
360
7D
102
}
330
2A
100
AcDbVisualStyle
  2
Realistic
 70
     8
 71
     2
 72
     2
 73
     0
 90
        0
 40
-0.6
 41
-30.0
 62
     5
 63
     7
 74
     1
 91
        0
 64
     7
 65
   257
 75
     1
175
     1
 42
1.0
 92
        8
 66
     8
 43
1.0
 76
     1
 77
     6
 78
     2
 67
     7
 79
     5
170
     0
171
     0
290
     0
174
     0
 93
       13
 44
0.0
173
     0
291
     0
 45
0.0
1001
ACAD
1000
AcDbSavedByObjectVersion
1070
     0
  0
VISUALSTYLE
  5
37
102
{ACAD_REACTORS
330
2A
102
}
102
{ACAD_XDICTIONARY
360
85
102
}
330
2A
100
AcDbVisualStyle
  2
Thicken
 70
    13
 71
     2
 72
     2
 73
     0
 90
        0
 40
-0.6
 41
-30.0
 62
     5
 63
     7
 74
     1
 91
        4
 64
     7
 65
   257
 75
     1
175
     1
 42
1.0
 92
       12
 66
     7
 43
1.0
 76
     1
 77
     6
 78
     2
 67
     7
 79
     5
170
     0
171
     0
290
     0
174
     0
 93
        1
 44
0.0
173
     0
291
     1
 45
0.0
1001
ACAD
1000
AcDbSavedByObjectVersion
1070
     0
  0
DICTIONARYVAR
  5
6B
102
{ACAD_REACTORS
330
68
102
}
330
68
100
DictionaryVariables
280
     0
  1
2
  0
DICTIONARYVAR
  5
6C
102
{ACAD_REACTORS
330
68
102
}
330
68
100
DictionaryVariables
280
     0
  1
1
  0
DICTIONARY
  5
8F
330
3D
100
AcDbDictionary
280
     1
281
     1
  3
ACAD_XREC_ROUNDTRIP
360
90
  0
DICTIONARY
  5
8D
330
3C
100
AcDbDictionary
280
     1
281
     1
  3
ACAD_XREC_ROUNDTRIP
360
8E
  0
DICTIONARY
  5
91
330
3E
100
AcDbDictionary
280
     1
281
     1
  3
ACAD_XREC_ROUNDTRIP
360
92
  0
DICTIONARY
  5
75
330
2F
100
AcDbDictionary
280
     1
281
     1
  3
ACAD_XREC_ROUNDTRIP
360
76
  0
DICTIONARY
  5
79
330
31
100
AcDbDictionary
280
     1
281
     1
  3
ACAD_XREC_ROUNDTRIP
360
7A
  0
DICTIONARY
  5
77
330
30
100
AcDbDictionary
280
     1
281
     1
  3
ACAD_XREC_ROUNDTRIP
360
78
  0
DICTIONARY
  5
7B
330
32
100
AcDbDictionary
280
     1
281
     1
  3
ACAD_XREC_ROUNDTRIP
360
7C
  0
DICTIONARY
  5
83
330
36
100
AcDbDictionary
280
     1
281
     1
  3
ACAD_XREC_ROUNDTRIP
360
84
  0
DICTIONARY
  5
8B
330
3A
100
AcDbDictionary
280
     1
281
     1
  3
ACAD_XREC_ROUNDTRIP
360
8C
  0
DICTIONARY
  5
7F
330
34
100
AcDbDictionary
280
     1
281
     1
  3
ACAD_XREC_ROUNDTRIP
360
80
  0
DICTIONARY
  5
81
330
35
100
AcDbDictionary
280
     1
281
     1
  3
ACAD_XREC_ROUNDTRIP
360
82
  0
DICTIONARY
  5
89
330
39
100
AcDbDictionary
280
     1
281
     1
  3
ACAD_XREC_ROUNDTRIP
360
8A
  0
DICTIONARY
  5
6D
330
2B
100
AcDbDictionary
280
     1
281
     1
  3
ACAD_XREC_ROUNDTRIP
360
6E
  0
DICTIONARY
  5
6F
330
2C
100
AcDbDictionary
280
     1
281
     1
  3
ACAD_XREC_ROUNDTRIP
360
70
  0
DICTIONARY
  5
71
330
2D
100
AcDbDictionary
280
     1
281
     1
  3
ACAD_XREC_ROUNDTRIP
360
72
  0
DICTIONARY
  5
73
330
2E
100
AcDbDictionary
280
     1
281
     1
  3
ACAD_XREC_ROUNDTRIP
360
74
  0
DICTIONARY
  5
87
330
38
100
AcDbDictionary
280
     1
281
     1
  3
ACAD_XREC_ROUNDTRIP
360
88
  0
DICTIONARY
  5
7D
330
33
100
AcDbDictionary
280
     1
281
     1
  3
ACAD_XREC_ROUNDTRIP
360
7E
  0
DICTIONARY
  5
85
330
37
100
AcDbDictionary
280
     1
281
     1
  3
ACAD_XREC_ROUNDTRIP
360
86
  0
XRECORD
  5
90
102
{ACAD_REACTORS
330
8F
102
}
330
8F
100
AcDbXrecord
280
     1
102
MATERIAL
148
0.0
149
0.0
149
0.0
 93
        0
 94
      127
282
     0
 72
     1
 77
     1
171
     1
175
     1
179
     1
273
     0
  0
XRECORD
  5
8E
102
{ACAD_REACTORS
330
8D
102
}
330
8D
100
AcDbXrecord
280
     1
102
MATERIAL
148
0.0
149
0.0
149
0.0
 93
        0
 94
      127
282
     0
 72
     1
 77
     1
171
     1
175
     1
179
     1
273
     0
  0
XRECORD
  5
92
102
{ACAD_REACTORS
330
91
102
}
330
91
100
AcDbXrecord
280
     1
102
MATERIAL
148
0.0
149
0.0
149
0.0
 93
        0
 94
      127
282
     0
 72
     1
 77
     1
171
     1
175
     1
179
     1
273
     0
  0
XRECORD
  5
76
102
{ACAD_REACTORS
330
75
102
}
330
75
100
AcDbXrecord
280
     1
102
RTVSPropertyOp0
 70
     1
102
RTVSPropertyOp1
 70
     1
102
RTVSPropertyOp2
 70
     1
102
RTVSPropertyOp3
 70
     1
102
RTVSPropertyOp4
 70
     1
102
RTVSPropertyOp5
 70
     1
102
RTVSPropertyOp6
 70
     1
102
RTVSPropertyOp7
 70
     1
102
RTVSPropertyOp8
 70
     1
102
RTVSPropertyOp9
 70
     1
102
RTVSPropertyOp10
 70
     1
102
RTVSPropertyOp11
 70
     1
102
RTVSPropertyOp12
 70
     1
102
RTVSPropertyOp13
 70
     1
102
RTVSPropertyOp14
 70
     1
102
RTVSPropertyOp15
 70
     1
102
RTVSPropertyOp16
 70
     1
102
RTVSPropertyOp17
 70
     1
102
RTVSPropertyOp18
 70
     1
102
RTVSPropertyOp19
 70
     1
102
RTVSPropertyOp20
 70
     1
102
RTVSPropertyOp21
 70
     1
102
RTVSPropertyOp22
 70
     1
102
RTVSPropertyOp23
 70
     1
102
RTVSPropertyOp24
 70
     1
102
RTVSPropertyOp25
 70
     1
102
RTVSPropertyOp26
 70
     1
102
RTVSPropertyOp27
 70
     1
  0
XRECORD
  5
7A
102
{ACAD_REACTORS
330
79
102
}
330
79
100
AcDbXrecord
280
     1
102
RTVSPropertyOp0
 70
     1
102
RTVSPropertyOp1
 70
     1
102
RTVSPropertyOp2
 70
     1
102
RTVSPropertyOp3
 70
     1
102
RTVSPropertyOp4
 70
     1
102
RTVSPropertyOp5
 70
     1
102
RTVSPropertyOp6
 70
     1
102
RTVSPropertyOp7
 70
     1
102
RTVSPropertyOp8
 70
     1
102
RTVSPropertyOp9
 70
     1
102
RTVSPropertyOp10
 70
     1
102
RTVSPropertyOp11
 70
     1
102
RTVSPropertyOp12
 70
     1
102
RTVSPropertyOp13
 70
     1
102
RTVSPropertyOp14
 70
     1
102
RTVSPropertyOp15
 70
     1
102
RTVSPropertyOp16
 70
     1
102
RTVSPropertyOp17
 70
     1
102
RTVSPropertyOp18
 70
     1
102
RTVSPropertyOp19
 70
     1
102
RTVSPropertyOp20
 70
     1
102
RTVSPropertyOp21
 70
     1
102
RTVSPropertyOp22
 70
     1
102
RTVSPropertyOp23
 70
     1
102
RTVSPropertyOp24
 70
     1
102
RTVSPropertyOp25
 70
     1
102
RTVSPropertyOp26
 70
     1
102
RTVSPropertyOp27
 70
     1
  0
XRECORD
  5
78
102
{ACAD_REACTORS
330
77
102
}
330
77
100
AcDbXrecord
280
     1
102
RTVSPropertyOp0
 70
     1
102
RTVSPropertyOp1
 70
     1
102
RTVSPropertyOp2
 70
     1
102
RTVSPropertyOp3
 70
     1
102
RTVSPropertyOp4
 70
     1
102
RTVSPropertyOp5
 70
     1
102
RTVSPropertyOp6
 70
     1
102
RTVSPropertyOp7
 70
     1
102
RTVSPropertyOp8
 70
     1
102
RTVSPropertyOp9
 70
     1
102
RTVSPropertyOp10
 70
     1
102
RTVSPropertyOp11
 70
     1
102
RTVSPropertyOp12
 70
     1
102
RTVSPropertyOp13
 70
     1
102
RTVSPropertyOp14
 70
     1
102
RTVSPropertyOp15
 70
     1
102
RTVSPropertyOp16
 70
     1
102
RTVSPropertyOp17
 70
     1
102
RTVSPropertyOp18
 70
     1
102
RTVSPropertyOp19
 70
     1
102
RTVSPropertyOp20
 70
     1
102
RTVSPropertyOp21
 70
     1
102
RTVSPropertyOp22
 70
     1
102
RTVSPropertyOp23
 70
     1
102
RTVSPropertyOp24
 70
     1
102
RTVSPropertyOp25
 70
     1
102
RTVSPropertyOp26
 70
     1
102
RTVSPropertyOp27
 70
     1
  0
XRECORD
  5
7C
102
{ACAD_REACTORS
330
7B
102
}
330
7B
100
AcDbXrecord
280
     1
102
RTVSPropertyOp0
 70
     1
102
RTVSPropertyOp1
 70
     1
102
RTVSPropertyOp2
 70
     1
102
RTVSPropertyOp3
 70
     1
102
RTVSPropertyOp4
 70
     1
102
RTVSPropertyOp5
 70
     1
102
RTVSPropertyOp6
 70
     1
102
RTVSPropertyOp7
 70
     1
102
RTVSPropertyOp8
 70
     1
102
RTVSPropertyOp9
 70
     1
102
RTVSPropertyOp10
 70
     1
102
RTVSPropertyOp11
 70
     1
102
RTVSPropertyOp12
 70
     1
102
RTVSPropertyOp13
 70
     1
102
RTVSPropertyOp14
 70
     1
102
RTVSPropertyOp15
 70
     1
102
RTVSPropertyOp16
 70
     1
102
RTVSPropertyOp17
 70
     1
102
RTVSPropertyOp18
 70
     1
102
RTVSPropertyOp19
 70
     1
102
RTVSPropertyOp20
 70
     1
102
RTVSPropertyOp21
 70
     1
102
RTVSPropertyOp22
 70
     1
102
RTVSPropertyOp23
 70
     1
102
RTVSPropertyOp24
 70
     1
102
RTVSPropertyOp25
 70
     1
102
RTVSPropertyOp26
 70
     1
102
RTVSPropertyOp27
 70
     1
  0
XRECORD
  5
84
102
{ACAD_REACTORS
330
83
102
}
330
83
100
AcDbXrecord
280
     1
102
RTVSPropertyOp0
 70
     1
102
RTVSPropertyOp1
 70
     1
102
RTVSPropertyOp2
 70
     1
102
RTVSPropertyOp3
 70
     1
102
RTVSPropertyOp4
 70
     1
102
RTVSPropertyOp5
 70
     1
102
RTVSPropertyOp6
 70
     1
102
RTVSPropertyOp7
 70
     1
102
RTVSPropertyOp8
 70
     1
102
RTVSPropertyOp9
 70
     1
102
RTVSPropertyOp10
 70
     1
102
RTVSPropertyOp11
 70
     1
102
RTVSPropertyOp12
 70
     1
102
RTVSPropertyOp13
 70
     1
102
RTVSPropertyOp14
 70
     1
102
RTVSPropertyOp15
 70
     1
102
RTVSPropertyOp16
 70
     1
102
RTVSPropertyOp17
 70
     1
102
RTVSPropertyOp18
 70
     1
102
RTVSPropertyOp19
 70
     1
102
RTVSPropertyOp20
 70
     1
102
RTVSPropertyOp21
 70
     1
102
RTVSPropertyOp22
 70
     1
102
RTVSPropertyOp23
 70
     1
102
RTVSPropertyOp24
 70
     1
102
RTVSPropertyOp25
 70
     1
102
RTVSPropertyOp26
 70
     1
102
RTVSPropertyOp27
 70
     1
  0
XRECORD
  5
8C
102
{ACAD_REACTORS
330
8B
102
}
330
8B
100
AcDbXrecord
280
     1
102
RTVSPropertyOp0
 70
     1
102
RTVSPropertyOp1
 70
     1
102
RTVSPropertyOp2
 70
     1
102
RTVSPropertyOp3
 70
     1
102
RTVSPropertyOp4
 70
     1
102
RTVSPropertyOp5
 70
     1
102
RTVSPropertyOp6
 70
     1
102
RTVSPropertyOp7
 70
     1
102
RTVSPropertyOp8
 70
     1
102
RTVSPropertyOp9
 70
     1
102
RTVSPropertyOp10
 70
     1
102
RTVSPropertyOp11
 70
     1
102
RTVSPropertyOp12
 70
     1
102
RTVSPropertyOp13
 70
     1
102
RTVSPropertyOp14
 70
     1
102
RTVSPropertyOp15
 70
     1
102
RTVSPropertyOp16
 70
     1
102
RTVSPropertyOp17
 70
     1
102
RTVSPropertyOp18
 70
     1
102
RTVSPropertyOp19
 70
     1
102
RTVSPropertyOp20
 70
     1
102
RTVSPropertyOp21
 70
     1
102
RTVSPropertyOp22
 70
     1
102
RTVSPropertyOp23
 70
     1
102
RTVSPropertyOp24
 70
     1
102
RTVSPropertyOp25
 70
     1
102
RTVSPropertyOp26
 70
     1
102
RTVSPropertyOp27
 70
     1
  0
XRECORD
  5
80
102
{ACAD_REACTORS
330
7F
102
}
330
7F
100
AcDbXrecord
280
     1
102
RTVSPropertyOp0
 70
     1
102
RTVSPropertyOp1
 70
     1
102
RTVSPropertyOp2
 70
     1
102
RTVSPropertyOp3
 70
     1
102
RTVSPropertyOp4
 70
     1
102
RTVSPropertyOp5
 70
     1
102
RTVSPropertyOp6
 70
     1
102
RTVSPropertyOp7
 70
     1
102
RTVSPropertyOp8
 70
     1
102
RTVSPropertyOp9
 70
     1
102
RTVSPropertyOp10
 70
     1
102
RTVSPropertyOp11
 70
     1
102
RTVSPropertyOp12
 70
     1
102
RTVSPropertyOp13
 70
     1
102
RTVSPropertyOp14
 70
     1
102
RTVSPropertyOp15
 70
     1
102
RTVSPropertyOp16
 70
     1
102
RTVSPropertyOp17
 70
     1
102
RTVSPropertyOp18
 70
     1
102
RTVSPropertyOp19
 70
     1
102
RTVSPropertyOp20
 70
     1
102
RTVSPropertyOp21
 70
     1
102
RTVSPropertyOp22
 70
     1
102
RTVSPropertyOp23
 70
     1
102
RTVSPropertyOp24
 70
     1
102
RTVSPropertyOp25
 70
     1
102
RTVSPropertyOp26
 70
     1
102
RTVSPropertyOp27
 70
     1
  0
XRECORD
  5
82
102
{ACAD_REACTORS
330
81
102
}
330
81
100
AcDbXrecord
280
     1
102
RTVSPropertyOp0
 70
     1
102
RTVSPropertyOp1
 70
     1
102
RTVSPropertyOp2
 70
     1
102
RTVSPropertyOp3
 70
     1
102
RTVSPropertyOp4
 70
     1
102
RTVSPropertyOp5
 70
     1
102
RTVSPropertyOp6
 70
     1
102
RTVSPropertyOp7
 70
     1
102
RTVSPropertyOp8
 70
     1
102
RTVSPropertyOp9
 70
     1
102
RTVSPropertyOp10
 70
     1
102
RTVSPropertyOp11
 70
     1
102
RTVSPropertyOp12
 70
     1
102
RTVSPropertyOp13
 70
     1
102
RTVSPropertyOp14
 70
     1
102
RTVSPropertyOp15
 70
     1
102
RTVSPropertyOp16
 70
     1
102
RTVSPropertyOp17
 70
     1
102
RTVSPropertyOp18
 70
     1
102
RTVSPropertyOp19
 70
     1
102
RTVSPropertyOp20
 70
     1
102
RTVSPropertyOp21
 70
     1
102
RTVSPropertyOp22
 70
     1
102
RTVSPropertyOp23
 70
     1
102
RTVSPropertyOp24
 70
     1
102
RTVSPropertyOp25
 70
     1
102
RTVSPropertyOp26
 70
     1
102
RTVSPropertyOp27
 70
     1
  0
XRECORD
  5
8A
102
{ACAD_REACTORS
330
89
102
}
330
89
100
AcDbXrecord
280
     1
102
RTVSPropertyOp0
 70
     1
102
RTVSPropertyOp1
 70
     1
102
RTVSPropertyOp2
 70
     1
102
RTVSPropertyOp3
 70
     1
102
RTVSPropertyOp4
 70
     1
102
RTVSPropertyOp5
 70
     1
102
RTVSPropertyOp6
 70
     1
102
RTVSPropertyOp7
 70
     1
102
RTVSPropertyOp8
 70
     1
102
RTVSPropertyOp9
 70
     1
102
RTVSPropertyOp10
 70
     1
102
RTVSPropertyOp11
 70
     1
102
RTVSPropertyOp12
 70
     1
102
RTVSPropertyOp13
 70
     1
102
RTVSPropertyOp14
 70
     1
102
RTVSPropertyOp15
 70
     1
102
RTVSPropertyOp16
 70
     1
102
RTVSPropertyOp17
 70
     1
102
RTVSPropertyOp18
 70
     1
102
RTVSPropertyOp19
 70
     1
102
RTVSPropertyOp20
 70
     1
102
RTVSPropertyOp21
 70
     1
102
RTVSPropertyOp22
 70
     1
102
RTVSPropertyOp23
 70
     1
102
RTVSPropertyOp24
 70
     1
102
RTVSPropertyOp25
 70
     1
102
RTVSPropertyOp26
 70
     1
102
RTVSPropertyOp27
 70
     1
  0
XRECORD
  5
6E
102
{ACAD_REACTORS
330
6D
102
}
330
6D
100
AcDbXrecord
280
     1
102
RTVSPropertyOp0
 70
     1
102
RTVSPropertyOp1
 70
     1
102
RTVSPropertyOp2
 70
     1
102
RTVSPropertyOp3
 70
     1
102
RTVSPropertyOp4
 70
     1
102
RTVSPropertyOp5
 70
     1
102
RTVSPropertyOp6
 70
     1
102
RTVSPropertyOp7
 70
     1
102
RTVSPropertyOp8
 70
     1
102
RTVSPropertyOp9
 70
     1
102
RTVSPropertyOp10
 70
     1
102
RTVSPropertyOp11
 70
     1
102
RTVSPropertyOp12
 70
     1
102
RTVSPropertyOp13
 70
     1
102
RTVSPropertyOp14
 70
     1
102
RTVSPropertyOp15
 70
     1
102
RTVSPropertyOp16
 70
     1
102
RTVSPropertyOp17
 70
     1
102
RTVSPropertyOp18
 70
     1
102
RTVSPropertyOp19
 70
     1
102
RTVSPropertyOp20
 70
     1
102
RTVSPropertyOp21
 70
     1
102
RTVSPropertyOp22
 70
     1
102
RTVSPropertyOp23
 70
     1
102
RTVSPropertyOp24
 70
     1
102
RTVSPropertyOp25
 70
     1
102
RTVSPropertyOp26
 70
     1
102
RTVSPropertyOp27
 70
     1
  0
XRECORD
  5
70
102
{ACAD_REACTORS
330
6F
102
}
330
6F
100
AcDbXrecord
280
     1
102
RTVSPropertyOp0
 70
     1
102
RTVSPropertyOp1
 70
     1
102
RTVSPropertyOp2
 70
     1
102
RTVSPropertyOp3
 70
     1
102
RTVSPropertyOp4
 70
     1
102
RTVSPropertyOp5
 70
     1
102
RTVSPropertyOp6
 70
     1
102
RTVSPropertyOp7
 70
     1
102
RTVSPropertyOp8
 70
     1
102
RTVSPropertyOp9
 70
     1
102
RTVSPropertyOp10
 70
     1
102
RTVSPropertyOp11
 70
     1
102
RTVSPropertyOp12
 70
     1
102
RTVSPropertyOp13
 70
     1
102
RTVSPropertyOp14
 70
     1
102
RTVSPropertyOp15
 70
     1
102
RTVSPropertyOp16
 70
     1
102
RTVSPropertyOp17
 70
     1
102
RTVSPropertyOp18
 70
     1
102
RTVSPropertyOp19
 70
     1
102
RTVSPropertyOp20
 70
     1
102
RTVSPropertyOp21
 70
     1
102
RTVSPropertyOp22
 70
     1
102
RTVSPropertyOp23
 70
     1
102
RTVSPropertyOp24
 70
     1
102
RTVSPropertyOp25
 70
     1
102
RTVSPropertyOp26
 70
     1
102
RTVSPropertyOp27
 70
     1
  0
XRECORD
  5
72
102
{ACAD_REACTORS
330
71
102
}
330
71
100
AcDbXrecord
280
     1
102
RTVSPropertyOp0
 70
     1
102
RTVSPropertyOp1
 70
     1
102
RTVSPropertyOp2
 70
     1
102
RTVSPropertyOp3
 70
     1
102
RTVSPropertyOp4
 70
     1
102
RTVSPropertyOp5
 70
     1
102
RTVSPropertyOp6
 70
     1
102
RTVSPropertyOp7
 70
     1
102
RTVSPropertyOp8
 70
     1
102
RTVSPropertyOp9
 70
     1
102
RTVSPropertyOp10
 70
     1
102
RTVSPropertyOp11
 70
     1
102
RTVSPropertyOp12
 70
     1
102
RTVSPropertyOp13
 70
     1
102
RTVSPropertyOp14
 70
     1
102
RTVSPropertyOp15
 70
     1
102
RTVSPropertyOp16
 70
     1
102
RTVSPropertyOp17
 70
     1
102
RTVSPropertyOp18
 70
     1
102
RTVSPropertyOp19
 70
     1
102
RTVSPropertyOp20
 70
     1
102
RTVSPropertyOp21
 70
     1
102
RTVSPropertyOp22
 70
     1
102
RTVSPropertyOp23
 70
     1
102
RTVSPropertyOp24
 70
     1
102
RTVSPropertyOp25
 70
     1
102
RTVSPropertyOp26
 70
     1
102
RTVSPropertyOp27
 70
     1
  0
XRECORD
  5
74
102
{ACAD_REACTORS
330
73
102
}
330
73
100
AcDbXrecord
280
     1
102
RTVSPropertyOp0
 70
     1
102
RTVSPropertyOp1
 70
     1
102
RTVSPropertyOp2
 70
     1
102
RTVSPropertyOp3
 70
     1
102
RTVSPropertyOp4
 70
     1
102
RTVSPropertyOp5
 70
     1
102
RTVSPropertyOp6
 70
     1
102
RTVSPropertyOp7
 70
     1
102
RTVSPropertyOp8
 70
     1
102
RTVSPropertyOp9
 70
     1
102
RTVSPropertyOp10
 70
     1
102
RTVSPropertyOp11
 70
     1
102
RTVSPropertyOp12
 70
     1
102
RTVSPropertyOp13
 70
     1
102
RTVSPropertyOp14
 70
     1
102
RTVSPropertyOp15
 70
     1
102
RTVSPropertyOp16
 70
     1
102
RTVSPropertyOp17
 70
     1
102
RTVSPropertyOp18
 70
     1
102
RTVSPropertyOp19
 70
     1
102
RTVSPropertyOp20
 70
     1
102
RTVSPropertyOp21
 70
     1
102
RTVSPropertyOp22
 70
     1
102
RTVSPropertyOp23
 70
     1
102
RTVSPropertyOp24
 70
     1
102
RTVSPropertyOp25
 70
     1
102
RTVSPropertyOp26
 70
     1
102
RTVSPropertyOp27
 70
     1
  0
XRECORD
  5
88
102
{ACAD_REACTORS
330
87
102
}
330
87
100
AcDbXrecord
280
     1
102
RTVSPropertyOp0
 70
     1
102
RTVSPropertyOp1
 70
     1
102
RTVSPropertyOp2
 70
     1
102
RTVSPropertyOp3
 70
     1
102
RTVSPropertyOp4
 70
     1
102
RTVSPropertyOp5
 70
     1
102
RTVSPropertyOp6
 70
     1
102
RTVSPropertyOp7
 70
     1
102
RTVSPropertyOp8
 70
     1
102
RTVSPropertyOp9
 70
     1
102
RTVSPropertyOp10
 70
     1
102
RTVSPropertyOp11
 70
     1
102
RTVSPropertyOp12
 70
     1
102
RTVSPropertyOp13
 70
     1
102
RTVSPropertyOp14
 70
     1
102
RTVSPropertyOp15
 70
     1
102
RTVSPropertyOp16
 70
     1
102
RTVSPropertyOp17
 70
     1
102
RTVSPropertyOp18
 70
     1
102
RTVSPropertyOp19
 70
     1
102
RTVSPropertyOp20
 70
     1
102
RTVSPropertyOp21
 70
     1
102
RTVSPropertyOp22
 70
     1
102
RTVSPropertyOp23
 70
     1
102
RTVSPropertyOp24
 70
     1
102
RTVSPropertyOp25
 70
     1
102
RTVSPropertyOp26
 70
     1
102
RTVSPropertyOp27
 70
     1
  0
XRECORD
  5
7E
102
{ACAD_REACTORS
330
7D
102
}
330
7D
100
AcDbXrecord
280
     1
102
RTVSPropertyOp0
 70
     1
102
RTVSPropertyOp1
 70
     1
102
RTVSPropertyOp2
 70
     1
102
RTVSPropertyOp3
 70
     1
102
RTVSPropertyOp4
 70
     1
102
RTVSPropertyOp5
 70
     1
102
RTVSPropertyOp6
 70
     1
102
RTVSPropertyOp7
 70
     1
102
RTVSPropertyOp8
 70
     1
102
RTVSPropertyOp9
 70
     1
102
RTVSPropertyOp10
 70
     1
102
RTVSPropertyOp11
 70
     1
102
RTVSPropertyOp12
 70
     1
102
RTVSPropertyOp13
 70
     1
102
RTVSPropertyOp14
 70
     1
102
RTVSPropertyOp15
 70
     1
102
RTVSPropertyOp16
 70
     1
102
RTVSPropertyOp17
 70
     1
102
RTVSPropertyOp18
 70
     1
102
RTVSPropertyOp19
 70
     1
102
RTVSPropertyOp20
 70
     1
102
RTVSPropertyOp21
 70
     1
102
RTVSPropertyOp22
 70
     1
102
RTVSPropertyOp23
 70
     1
102
RTVSPropertyOp24
 70
     1
102
RTVSPropertyOp25
 70
     1
102
RTVSPropertyOp26
 70
     1
102
RTVSPropertyOp27
 70
     1
  0
XRECORD
  5
86
102
{ACAD_REACTORS
330
85
102
}
330
85
100
AcDbXrecord
280
     1
102
RTVSPropertyOp0
 70
     1
102
RTVSPropertyOp1
 70
     1
102
RTVSPropertyOp2
 70
     1
102
RTVSPropertyOp3
 70
     1
102
RTVSPropertyOp4
 70
     1
102
RTVSPropertyOp5
 70
     1
102
RTVSPropertyOp6
 70
     1
102
RTVSPropertyOp7
 70
     1
102
RTVSPropertyOp8
 70
     1
102
RTVSPropertyOp9
 70
     1
102
RTVSPropertyOp10
 70
     1
102
RTVSPropertyOp11
 70
     1
102
RTVSPropertyOp12
 70
     1
102
RTVSPropertyOp13
 70
     1
102
RTVSPropertyOp14
 70
     1
102
RTVSPropertyOp15
 70
     1
102
RTVSPropertyOp16
 70
     1
102
RTVSPropertyOp17
 70
     1
102
RTVSPropertyOp18
 70
     1
102
RTVSPropertyOp19
 70
     1
102
RTVSPropertyOp20
 70
     1
102
RTVSPropertyOp21
 70
     1
102
RTVSPropertyOp22
 70
     1
102
RTVSPropertyOp23
 70
     1
102
RTVSPropertyOp24
 70
     1
102
RTVSPropertyOp25
 70
     1
102
RTVSPropertyOp26
 70
     1
102
RTVSPropertyOp27
 70
     1
  0
ENDSEC
  0
EOF
